<?xml version="1.0" standalone="no"?><!DOCTYPE svg PUBLIC "-//W3C//DTD SVG 1.1//EN" "http://www.w3.org/Graphics/SVG/1.1/DTD/svg11.dtd"><svg t="1720921387459" class="icon" viewBox="0 0 1024 1024" version="1.1" xmlns="http://www.w3.org/2000/svg" p-id="4074" xmlns:xlink="http://www.w3.org/1999/xlink" width="128" height="128"><path d="M423.2 598v-113.22c0-11.72 6.88-19.88 15.4-17.62 7.1 1.88 16.92 20.64 42.32 19.12S519.4 460.72 519.4 442s-13.08-42.76-38.48-44.28-35.24 17.22-42.32 19.1c-8.52 2.26-15.4-5.74-15.4-17.44v-105.08a8.28 8.28 0 0 0-8.28-8.3H153.38A41.44 41.44 0 0 0 112 327.48V598h116.14c10.84 0 18.24-6.4 16.16-14.32-1.74-6.6-19.08-15.74-17.68-39.38s23.64-35.8 40.98-35.8 39.58 12.16 41 35.8-16 32.78-17.7 39.38c-2 8 5.5 14.32 16.34 14.32z" fill="#FFD43B" p-id="4075"></path><path d="M424.66 598h-113.44c-11.74 0-20-6.9-17.66-15.44 1.88-7.1 20.68-16.96 19.16-42.44s-25.62-38.58-44.4-38.58-42.84 13.1-44.36 38.58 17.26 35.32 19.14 42.44c2.26 8.54-5.76 15.44-17.48 15.44H112v270.52A41.54 41.54 0 0 0 153.58 910h271.08v-116.44c0-10.86-6.42-18.28-14.36-16.2-6.62 1.74-15.78 19.14-39.46 17.72S334.96 771.4 334.96 754s12.18-39.7 35.88-41.1 32.86 16 39.46 17.74c8 2 14.36-5.5 14.36-16.38z" fill="#20C997" p-id="4076"></path><path d="M625.58 516.7a8.34 8.34 0 0 0 11.32 3.2l92-51.2c10.26-5.72 20.8-3.68 23 4.88 1.84 7.14-9.78 24.88 4 46.42s41.28 21.24 57.7 12.1 31.06-32.32 20-55.32-32.54-22.46-37.6-27.76c-6.16-6.36-2.52-16.28 7.74-22l92-51.26a8.3 8.3 0 0 0 3.22-11.3L770.66 135.28a41.68 41.68 0 0 0-56.64-16l-229.76 128a8.3 8.3 0 0 0-3.22 11.3L534 353.04c5.32 9.5 14.56 12.86 20.48 7.16 4.92-4.74 4.44-24.4 25.84-34.7s42.96 3.24 51.46 18.44 8.76 40.62-11.26 53.38-36.56 2-43.18 3.72c-8 2-9.86 11.8-4.54 21.3z" fill="#F06595" p-id="4077"></path><path d="M423.34 598v113.22c0 11.72-6.9 19.88-15.46 17.62-7.12-1.88-17-20.64-42.52-19.12s-38.68 25.56-38.68 44.28 13.14 42.76 38.66 44.28 35.4-17.22 42.52-19.1c8.56-2.26 15.46 5.74 15.46 17.44V910h271.1A41.54 41.54 0 0 0 736 868.52V606.3a8.3 8.3 0 0 0-8.32-8.3h-108.38c-10.88 0-18.32 6.4-16.22 14.32 1.74 6.6 19.18 15.74 17.76 39.38s-23.74 35.8-41.18 35.8-39.78-12.16-41.18-35.8 16-32.78 17.78-39.38c2-8-5.52-14.32-16.4-14.32z" fill="#9775FA" p-id="4078"></path></svg>