<?xml version="1.0" standalone="no"?><!DOCTYPE svg PUBLIC "-//W3C//DTD SVG 1.1//EN" "http://www.w3.org/Graphics/SVG/1.1/DTD/svg11.dtd"><svg t="1721054992395" class="icon" viewBox="0 0 1024 1024" version="1.1" xmlns="http://www.w3.org/2000/svg" p-id="10113" xmlns:xlink="http://www.w3.org/1999/xlink" width="128" height="128"><path d="M511.998969 511.998969m-511.998969 0a511.998969 511.998969 0 1 0 1023.997938 0 511.998969 511.998969 0 1 0-1023.997938 0Z" fill="#FDBF5E" p-id="10114"></path><path d="M1007.99913 392.000693H369.599887c0 49.598985 40.000113 91.199597 91.199597 91.199597h457.600548c49.598985-1.6005 89.599098-41.600612 89.599098-91.199597z" fill="#FFFFFF" p-id="10115"></path><path d="M916.799533 497.600661H459.198985c-59.199919 0-107.200467-48.000548-107.200467-107.200468 0-9.600935 6.399936-16.00087 16.00087-16.00087h639.999742c9.600935 0 16.00087 6.399936 16.00087 16.00087 0 59.199919-48.000548 107.200467-107.200467 107.200468z m-529.600339-89.601161c8.000435 33.600177 36.799114 59.199919 73.60029 59.19992h457.600548c35.200677 0 65.599855-25.599742 73.60029-59.19992H387.199194z" fill="#193651" p-id="10116"></path><path d="M414.399436 16.00087h548.800145v375.999823H414.399436z" fill="#F16051" p-id="10117"></path><path d="M963.199581 407.9995H414.399436c-9.600935 0-16.00087-6.399936-16.00087-16.00087V16.00087c0-9.600935 6.399936-16.00087 16.00087-16.00087h548.800145c9.600935 0 16.00087 6.399936 16.00087 16.00087v375.999823c0 7.998373-8.000435 15.998808-16.00087 15.998807z m-532.799275-31.999677h516.800467V31.999678h-516.800467v344.000145z" fill="#193651" p-id="10118"></path><path d="M480.910916 81.600725h415.999935v243.199613H480.910916z" fill="#FFFFFF" p-id="10119"></path><path d="M620.799936 244.800113l-20.800307 17.599307-20.800306-17.599307v-11.199372h41.600613z" fill="#E1E6E9" p-id="10120"></path><path d="M599.999629 183.999694m-51.199484 0a51.199484 51.199484 0 1 0 102.398969 0 51.199484 51.199484 0 1 0-102.398969 0Z" fill="#193651" p-id="10121"></path><path d="M559.999517 214.400935V190.399629s40.000113 12.799871 59.199919-22.400805c0 0 4.799436 16.00087 22.400806 19.199806v27.200242s-8.000435 31.999678-40.000113 31.999678c-1.6005 0.002062-33.600177 1.6005-41.600612-31.997615z" fill="#FDBF5E" p-id="10122"></path><path d="M688.00029 324.800338v-20.800306c0-16.00087-9.600935-30.399178-23.999243-38.399613-16.00087-6.399936-31.999678-9.600935-31.999677-9.600935l-30.399179 6.399936-30.399178-6.399936s-17.599307 3.200999-33.600177 9.600935c-14.400371 6.399936-23.999243 20.800306-23.999243 38.399613v22.400806h174.400822v-1.6005z" fill="#E1E6E9" p-id="10123"></path><path d="M579.199323 244.800113l-8.000435 11.199371 14.400371 30.401241 14.40037-24.001305zM620.799936 244.800113l9.598872 11.199371-14.398308 30.401241-16.000871-24.001305z" fill="#CFD0D1" p-id="10124"></path><path d="M587.199758 324.800338h28.800742l-11.201435-40.000112 6.399936-6.399936-11.199372-16.00087-9.598872 16.00087 6.399936 6.399936z" fill="#2EA2DB" p-id="10125"></path><path d="M708.800596 193.600628h31.999678v28.800742h-31.999678zM769.598953 193.600628h31.999677v28.800742h-31.999677z" fill="#193651" p-id="10126"></path><path d="M830.399372 193.600628h31.999677v28.800742h-31.999677zM710.399033 134.400709h150.399517v31.999678h-150.399517z" fill="#193651" p-id="10127"></path><path d="M656.000612 916.799533H16.00087c0 51.199484 41.600612 91.199597 91.199597 91.199597h457.600548c51.199484 0 91.199597-40.000113 91.199597-91.199597z" fill="#FFFFFF" p-id="10128"></path><path d="M564.798953 1024H107.200467C48.000548 1024 0 975.999452 0 916.799533c0-9.600935 6.399936-16.00087 16.00087-16.00087h639.999742c9.600935 0 16.00087 6.399936 16.00087 16.00087-0.002062 59.199919-48.00261 107.200467-107.202529 107.200467zM35.200677 932.800403c6.399936 33.600177 36.799114 59.199919 71.99979 59.199919h457.600548c35.200677 0 65.599855-25.599742 73.60029-59.199919H35.200677z" fill="#193651" p-id="10129"></path><path d="M62.400918 542.400209H611.201063v375.999823H62.400918z" fill="#2EA2DB" p-id="10130"></path><path d="M611.199001 932.800403H62.400918c-9.600935 0-16.00087-6.399936-16.00087-16.00087V542.400209c0-9.600935 6.399936-16.00087 16.00087-16.00087H611.201063c9.600935 0 16.00087 6.399936 16.000871 16.00087v375.999823c-0.002062 8.000435-8.002498 14.400371-16.002933 14.400371zM78.399726 900.800725h516.800467V558.399017H78.399726v342.401708z" fill="#193651" p-id="10131"></path><path d="M128.479273 607.775252H544.479209v243.199613H128.479273z" fill="#FFFFFF" p-id="10132"></path><path d="M268.799355 771.199452l-20.800306 17.599307-20.798243-17.599307v-11.199371h41.598549z" fill="#E1E6E9" p-id="10133"></path><path d="M247.999049 708.800596m-51.199484 0a51.199484 51.199484 0 1 0 102.398969 0 51.199484 51.199484 0 1 0-102.398969 0Z" fill="#193651" p-id="10134"></path><path d="M207.998937 740.800274V716.801031s40.000113 12.799871 59.199919-22.400805c0 0 4.799436 16.00087 22.400806 19.199806v27.200242s-8.000435 31.999678-40.000113 31.999678c-1.6005 0-33.600177 1.6005-41.600612-31.999678z" fill="#FDBF5E" p-id="10135"></path><path d="M335.99971 851.199678v-22.400806c0-16.00087-9.600935-30.399178-23.999243-38.399613-16.00087-6.399936-31.999678-9.600935-31.999677-9.600935l-30.399179 6.399936-28.800741-6.399936s-17.599307 3.200999-33.600177 9.600935c-14.400371 6.399936-23.999243 20.800306-23.999243 38.399613v22.400806h172.79826z" fill="#E1E6E9" p-id="10136"></path><path d="M227.200806 771.199452l-8.000435 11.199372 14.40037 28.800741 14.398308-22.400806zM268.799355 771.199452l9.600935 11.199372-14.400371 30.40124-16.00087-24.001305z" fill="#CFD0D1" p-id="10137"></path><path d="M235.199178 851.199678H263.999919l-11.199371-40.000113 4.799436-8.000435-9.600935-14.400371-9.598872 14.400371 6.399936 8.000435z" fill="#2EA2DB" p-id="10138"></path><path d="M356.800016 719.999968h31.999678v28.800741h-31.999678zM417.600435 719.999968h31.999678v28.800741h-31.999678zM478.400854 719.999968h31.999678v28.800741h-31.999678zM358.400516 660.800048h150.399516v31.999678H358.400516zM134.400709 415.999936l-30.399178-8.000436c3.200999-11.199372 6.399936-20.800306 9.600934-31.999677l30.399179 9.600934c-4.801499 11.199372-6.401998 20.798244-9.600935 30.399179z m19.199807-57.59942l-28.800742-12.799871c4.799436-9.600935 9.600935-20.800306 14.400371-30.399179l28.800741 14.400371-14.40037 28.798679z m28.798678-54.400484l-27.200241-17.599307c6.399936-9.600935 12.799871-19.199807 19.199806-27.200242l25.599742 19.199807c-6.397873 8.000435-11.199372 17.599307-17.599307 25.599742z m36.801177-49.601047L195.201128 233.598679c8.000435-8.000435 14.400371-16.00087 22.400806-23.999243l22.400805 22.400806c-6.401998 8.000435-12.801934 15.998808-20.802368 22.398743zM263.999919 212.800435L243.199613 188.801192c8.000435-6.399936 17.599307-14.400371 27.200242-20.800306l17.599307 25.599742L263.999919 212.800435z m49.598985-35.200677l-16.00087-27.200241c9.600935-6.399936 19.199807-11.199372 28.800741-16.000871l14.400371 28.800742c-7.998373 3.200999-17.599307 8.000435-27.200242 14.40037zM683.200854 895.999227l-12.799871-28.800742c9.600935-4.799436 19.199807-8.000435 27.200242-12.799871l16.00087 28.800741c-11.201434 4.799436-20.802369 9.600935-30.401241 12.799872z m57.59942-30.399179l-17.599307-27.200241c8.000435-4.799436 17.599307-11.199372 25.599742-17.599307l19.199807 25.599742c-8.000435 6.399936-17.60137 12.799871-27.200242 19.199806z m52.799984-41.600612l-20.800306-23.999243c8.000435-6.399936 14.400371-14.400371 22.400805-20.800306l23.999243 22.400806c-9.600935 7.998373-17.599307 15.998808-25.599742 22.398743z m46.400048-48.000548l-25.599742-20.800306 19.199807-23.999243 25.599742 17.599307c-6.399936 9.600935-12.799871 19.201869-19.199807 27.200242z m36.799114-54.398421l-27.200242-16.00087c4.799436-9.600935 9.600935-17.599307 14.400371-27.200242l28.800741 14.400371c-4.801499 9.600935-9.600935 19.199807-16.00087 28.800741z m28.800741-59.199919l-30.399178-11.199372 9.600934-28.800741 30.399179 9.600935c-1.6005 9.598872-4.801499 19.197744-9.600935 30.399178z m19.199807-64.001418l-31.999678-6.399936c1.6005-6.399936 3.200999-14.400371 3.200999-22.400805l31.999678 4.799436c-0.002062 8.002498-1.6005 16.002933-3.200999 24.001305z" fill="#193651" p-id="10139"></path></svg>