<?xml version="1.0" standalone="no"?><!DOCTYPE svg PUBLIC "-//W3C//DTD SVG 1.1//EN" "http://www.w3.org/Graphics/SVG/1.1/DTD/svg11.dtd"><svg t="1721642877719" class="icon" viewBox="0 0 1024 1024" version="1.1" xmlns="http://www.w3.org/2000/svg" p-id="2967" xmlns:xlink="http://www.w3.org/1999/xlink" width="128" height="128"><path d="M820.166884 465.92408c0 220.878024-137.966661 363.209944-308.166884 363.209944C341.803857 829.134024 203.833116 686.802104 203.833116 465.92408 203.833116 245.050135 341.803857 0 512 0c170.200223 0 308.166884 245.050135 308.166884 465.92408z" fill="#7DBF7D" p-id="2968"></path><path d="M773.948175 422.369402c0 188.073307-117.478502 291.574821-262.39694 291.574821s-262.39694-103.501514-262.39694-291.574821c0-188.073307 117.478502-406.528 262.39694-406.528s262.39694 218.454693 262.39694 406.528z" fill="#8FDB8F" p-id="2969"></path><path d="M692.379028 354.067378c0 132.854821-82.988876 207.908717-185.360319 207.908718-102.367363 0-185.356239-75.053896-185.356239-207.908718 0-132.850741 82.988876-322.865976 185.356239-322.865976 102.371442-0.00408 185.360319 190.011155 185.360319 322.865976z" fill="#96E696" p-id="2970"></path><path d="M550.683538 559.36102l-11.798438-150.295458 174.97345-153.245068-178.318789 110.571602 3.149514 40.144063-12.916271-164.574342 57.413355-45.537403-67.314741 23.760064-97.010742-57.417434 85.134789 81.173418-13.258964 200.899825-190.349769-159.637928 185.915156 226.81396L452.518247 1024h134.629482l-32.009179-407.80902 134.959936-170.306295z" fill="#D57E58" p-id="2971"></path><path d="M690.098486 445.880606l-139.414948 113.480414-11.794359-150.295458 174.969371-153.245068-178.318789 110.571602 3.149514 40.139984-12.916271-164.570263 57.413355-45.537403-67.314741 23.760064-97.010742-57.417434 85.134789 81.169338-13.258964 200.903905-190.349769-159.642008 185.915156 226.81804L452.518247 1024l64.679267-516.075602L587.147729 1024l-32.009179-407.80902z" fill="#BF714F" p-id="2972"></path></svg>