<?xml version="1.0" standalone="no"?><!DOCTYPE svg PUBLIC "-//W3C//DTD SVG 1.1//EN" "http://www.w3.org/Graphics/SVG/1.1/DTD/svg11.dtd"><svg t="1720921821252" class="icon" viewBox="0 0 1024 1024" version="1.1" xmlns="http://www.w3.org/2000/svg" p-id="4613" xmlns:xlink="http://www.w3.org/1999/xlink" width="128" height="128"><path d="M330 597.56h235.06v287.08H330a42.9 42.9 0 0 1-42.9-42.9V640.46A42.9 42.9 0 0 1 330 597.56z" fill="#9775FA" p-id="4614"></path><path d="M881.42 662.26a43.78 43.78 0 0 0 21.06-37.42 44 44 0 0 0-44-43.84H753.2a28.36 28.36 0 0 1-28-33.24l18.36-103.76a57.1 57.1 0 0 0-46.44-66.14 57.24 57.24 0 0 0-66.34 46.3l-24.92 140.9a28.4 28.4 0 0 1-28 23.42h-78.5v307.08h311.06a44 44 0 0 0 44-43.84 43.62 43.62 0 0 0-11.86-30A44 44 0 0 0 883.3 778a43.62 43.62 0 0 0-12.58-30.68 44 44 0 0 0 40.28-43.68 43.86 43.86 0 0 0-29.58-41.38z" fill="#FFCC90" p-id="4615"></path><path d="M440.24 561.2m28.38 0l68.28 0q28.38 0 28.38 28.38l0 303.04q0 28.38-28.38 28.38l-68.28 0q-28.38 0-28.38-28.38l0-303.04q0-28.38 28.38-28.38Z" fill="#845EF7" p-id="4616"></path><path d="M475.3 857.26a27.46 27.38 0 1 0 54.92 0 27.46 27.38 0 1 0-54.92 0Z" fill="#FFFFFF" p-id="4617"></path><path d="M488.4 489.66L402 467.02a18.74 18.74 0 0 0-12.88 1.34 193.08 193.08 0 0 1-102.54 18c-90.36-8.66-163.5-81.04-172.58-170.86-12.22-121.14 88.98-222.14 210.56-210.6 92.36 8.78 166.36 84.3 173.16 176.38a190.26 190.26 0 0 1-22.38 105 18.7 18.7 0 0 0-1.44 14.88l25.68 76.66a9.26 9.26 0 0 1-11.18 11.84z m16.6 4.34" fill="#FCC419" p-id="4618"></path><path d="M306.96 456.26a158.98 158.98 0 0 0 69.34-15.74 52.26 52.26 0 0 1 22.46-5.14 50.72 50.72 0 0 1 12.8 1.64l44.94 11.76-12.1-36.12a51.18 51.18 0 0 1 3.6-40.42 158.56 158.56 0 0 0 18.58-87.3c-5.62-76.28-67.44-139.28-143.82-146.54-5.28-0.5-10.6-0.76-15.84-0.76a160.82 160.82 0 0 0-118.8 52.48 158.42 158.42 0 0 0 6 219.62 160.12 160.12 0 0 0 96.92 45.76c5.26 0.5 10.64 0.76 15.92 0.76z" fill="#FFD43B" p-id="4619"></path><path d="M386.2 272.4h-158.5a11.9 11.9 0 1 1 0-23.78h158.5a11.9 11.9 0 1 1 0 23.78zM342.78 345.32h-115.08a11.9 11.9 0 1 1 0-23.78h115.08a11.9 11.9 0 1 1 0 23.78z" fill="#495057" p-id="4620"></path><path d="M488.4 490.64L402 467.9a18.66 18.66 0 0 0-12.88 1.36 192.22 192.22 0 0 1-102.54 18.12c-90.36-8.76-163.5-81.5-172.58-171.8A192.7 192.7 0 0 1 324.56 104c92.36 8.82 166.36 84.74 173.16 177.28a192 192 0 0 1-22.38 105.54 18.9 18.9 0 0 0-1.44 14.94l25.68 77.06a9.28 9.28 0 0 1-11.18 11.82z m16.6 4.36" fill="#FCC419" p-id="4621"></path><path d="M306.96 457.08a158.32 158.32 0 0 0 69.34-15.82 52 52 0 0 1 22.44-5.26 50.48 50.48 0 0 1 12.8 1.66l44.94 11.82-12.1-36.3a51.68 51.68 0 0 1 3.62-40.56 160 160 0 0 0 18.58-87.74c-5.62-76.68-67.44-140-143.82-147.3-5.28-0.5-10.6-0.76-15.84-0.76a160.16 160.16 0 0 0-16 319.48c5.38 0.52 10.76 0.78 16.04 0.78z" fill="#FFD43B" p-id="4622"></path><path d="M386.2 272.26h-158.5a12 12 0 0 1 0-24h158.5a12 12 0 0 1 0 24zM342.78 345.54h-115.08a12 12 0 0 1 0-24h115.08a12 12 0 0 1 0 24z" fill="#495057" p-id="4623"></path></svg>