<?xml version="1.0" standalone="no"?><!DOCTYPE svg PUBLIC "-//W3C//DTD SVG 1.1//EN" "http://www.w3.org/Graphics/SVG/1.1/DTD/svg11.dtd"><svg t="1720939027005" class="icon" viewBox="0 0 1024 1024" version="1.1" xmlns="http://www.w3.org/2000/svg" p-id="6765" xmlns:xlink="http://www.w3.org/1999/xlink" width="128" height="128"><path d="M401.066667 465.066667H162.133333c-36.266667 0-64-27.733333-64-64V162.133333c0-36.266667 27.733333-64 64-64h241.066667c36.266667 0 64 27.733333 64 64v241.066667c-2.133333 34.133333-29.866667 61.866667-66.133333 61.866667z m0 460.8H162.133333c-36.266667 0-64-27.733333-64-64v-238.933334c0-36.266667 27.733333-64 64-64h241.066667c36.266667 0 64 27.733333 64 64v241.066667c-2.133333 34.133333-29.866667 61.866667-66.133333 61.866667z m221.866666 0h238.933334c36.266667 0 64-27.733333 66.133333-61.866667V622.933333c0-36.266667-27.733333-64-64-64H622.933333c-36.266667 0-64 27.733333-64 64v238.933334c0 36.266667 27.733333 64 64 64z" fill="#4C4E58" p-id="6766"></path><path d="M697.472 495.061333l-168.96-168.96a62.848 62.848 0 0 1 0-90.496l168.96-168.96a62.848 62.848 0 0 1 90.453333 0l170.496 170.453334c25.642667 25.642667 25.642667 64.853333 0 90.496l-167.424 167.466666c-27.178667 24.149333-67.882667 25.6-93.525333 0z" fill="#F0A442" p-id="6767"></path></svg>