<?xml version="1.0" standalone="no"?><!DOCTYPE svg PUBLIC "-//W3C//DTD SVG 1.1//EN" "http://www.w3.org/Graphics/SVG/1.1/DTD/svg11.dtd"><svg t="1721055120620" class="icon" viewBox="0 0 1024 1024" version="1.1" xmlns="http://www.w3.org/2000/svg" p-id="10474" xmlns:xlink="http://www.w3.org/1999/xlink" width="128" height="128"><path d="M511.998969 511.998969m-511.998969 0a511.998969 511.998969 0 1 0 1023.997938 0 511.998969 511.998969 0 1 0-1023.997938 0Z" fill="#4FBF9F" p-id="10475"></path><path d="M604.799065 617.598937L502.400097 527.999839c-6.399936-6.399936-8.000435-16.00087-1.6005-22.400806s16.00087-8.000435 22.400806-1.600499l102.398969 89.599097c6.399936 6.399936 8.000435 16.00087 1.600499 22.400806-4.799436 6.401998-14.400371 6.401998-22.400806 1.6005z" fill="#193651" p-id="10476"></path><path d="M513.599468 531.200838c-9.600935 0-16.00087-6.399936-16.00087-16.00087v-100.800532c0-9.600935 6.399936-16.00087 16.00087-16.00087 9.600935 0 16.00087 6.399936 16.00087 16.00087v100.800532c0 9.598872-8.000435 16.00087-16.00087 16.00087z" fill="#193651" p-id="10477"></path><path d="M396.800129 617.598937c-6.399936-6.399936-4.799436-16.00087 1.600499-22.400806l103.999469-91.199597c6.399936-6.399936 16.00087-4.799436 22.400805 1.600499 6.399936 6.399936 4.799436 16.00087-1.600499 22.400806l-103.999468 91.199597c-6.401998 4.799436-16.00087 4.799436-22.400806-1.600499z" fill="#193651" p-id="10478"></path><path d="M513.599468 91.199597c-89.599098 0-161.600951 71.999791-161.60095 161.600951s71.999791 161.600951 161.60095 161.600951c89.599098 0 161.600951-71.999791 161.600951-161.600951s-73.60029-161.600951-161.600951-161.600951z" fill="#FFFFFF" p-id="10479"></path><path d="M513.599468 430.400306c-97.599533 0-177.599758-80.000226-177.599758-177.599758s80.000226-177.599758 177.599758-177.599758 177.599758 80.000226 177.599759 177.599758-80.000226 177.599758-177.599759 177.599758z m0-323.199839c-80.000226 0-145.600081 65.599855-145.60008 145.600081s65.599855 145.600081 145.60008 145.60008 145.600081-65.599855 145.600081-145.60008-65.599855-145.600081-145.600081-145.600081z" fill="#193651" p-id="10480"></path><path d="M513.599468 414.399436c54.400483 0 103.999468-27.200242 132.80021-68.800854-8.000435-16.00087-23.999243-28.800741-44.799549-40.000113l-36.799114-19.199806-20.800306 22.400805c-16.00087 19.199807-46.400048 19.199807-62.400918 0l-20.800307-22.400805-36.799113 19.199806c-20.800306 9.600935-36.799114 23.999243-44.799549 40.000113 30.399178 41.600612 78.399726 68.800854 134.398646 68.800854z" fill="#F16051" p-id="10481"></path><path d="M571.198888 204.8c0 31.999678-25.599742 81.600725-59.199919 81.600725-31.999678 0-59.199919-49.598985-59.19992-81.600725s25.599742-59.199919 59.19992-59.199919c32.00174 0 59.199919 28.800741 59.199919 59.199919z" fill="#FDBF5E" p-id="10482"></path><path d="M523.200403 140.800645c-25.599742-4.799436-36.799114 8.000435-38.399613 11.199371 0 0-1.6005 0-1.6005 1.6005-36.799114-8.000435-30.399178 51.199484-30.399178 51.199484 0 9.600935 3.200999 20.800306 6.399935 31.999678 0-8.000435 1.6005-48.000548 20.800307-41.600613 0 0 23.999243 19.199807 57.599419 0 0 0 20.800306-8.000435 23.999243 40.000113 6.399936-9.598872 35.200677-78.399726-38.399613-94.398533z" fill="#193651" p-id="10483"></path><path d="M513.599468 430.400306c-97.599533 0-177.599758-80.000226-177.599758-177.599758s80.000226-177.599758 177.599758-177.599758 177.599758 80.000226 177.599759 177.599758-80.000226 177.599758-177.599759 177.599758z m0-323.199839c-80.000226 0-145.600081 65.599855-145.60008 145.600081s65.599855 145.600081 145.60008 145.60008 145.600081-65.599855 145.600081-145.60008-65.599855-145.600081-145.600081-145.600081z" fill="#193651" p-id="10484"></path><path d="M748.800709 536.000274c-89.599098 0-161.600951 71.999791-161.600951 161.600951s71.999791 161.600951 161.600951 161.60095c89.599098 0 161.600951-71.999791 161.600951-161.60095s-73.602353-161.600951-161.600951-161.600951z" fill="#FFFFFF" p-id="10485"></path><path d="M748.800709 873.600483c-97.599533 0-177.599758-80.000226-177.599758-177.599758s80.000226-177.599758 177.599758-177.599758 177.599758 80.000226 177.599758 177.599758-80.000226 177.599758-177.599758 177.599758z m0-321.601401c-80.000226 0-145.600081 65.599855-145.600081 145.60008s65.599855 145.600081 145.600081 145.600081 145.600081-65.599855 145.600081-145.600081-65.601917-145.600081-145.600081-145.60008z" fill="#193651" p-id="10486"></path><path d="M748.800709 857.599613c54.400483 0 103.999468-27.200242 132.800209-68.800854-8.000435-16.00087-23.999243-28.800741-44.799548-40.000113l-36.799114-19.199806-20.800306 22.400806c-16.00087 19.199807-46.400048 19.199807-62.400919 0l-20.800306-22.400806-36.799114 19.199806c-20.800306 9.600935-36.799114 23.999243-44.799549 40.000113 30.397116 41.600612 78.397664 68.800854 134.398647 68.800854z" fill="#F16051" p-id="10487"></path><path d="M806.400129 649.600677c0 31.999678-25.599742 81.600725-59.19992 81.600725s-59.199919-51.199484-59.199919-81.600725c0-31.999678 25.599742-59.199919 59.199919-59.19992s59.199919 27.198179 59.19992 59.19992z" fill="#FDBF5E" p-id="10488"></path><path d="M758.399581 584.000822c-25.599742-4.799436-36.799114 8.000435-38.399613 11.199371 0 0-1.6005 0-1.6005 1.6005-36.799114-8.000435-30.399178 51.199484-30.399178 51.199484 0 9.600935 3.200999 20.800306 6.399936 31.999678 0-8.000435 1.6005-48.000548 20.800306-41.600612 0 0 23.999243 19.199807 57.59942 0 0 0 20.800306-8.000435 23.999242 40.000112 6.399936-9.598872 36.801176-76.799227-38.399613-94.398533z" fill="#193651" p-id="10489"></path><path d="M748.800709 873.600483c-97.599533 0-177.599758-80.000226-177.599758-177.599758s80.000226-177.599758 177.599758-177.599758 177.599758 80.000226 177.599758 177.599758-80.000226 177.599758-177.599758 177.599758z m0-321.601401c-80.000226 0-145.600081 65.599855-145.600081 145.60008s65.599855 145.600081 145.600081 145.600081 145.600081-65.599855 145.600081-145.600081-65.601917-145.600081-145.600081-145.60008z" fill="#193651" p-id="10490"></path><path d="M275.199291 536.000274c-89.599098 0-161.600951 71.999791-161.600951 161.600951s71.999791 161.600951 161.600951 161.60095c89.599098 0 161.600951-71.999791 161.600951-161.60095s-71.999791-161.600951-161.600951-161.600951z" fill="#FFFFFF" p-id="10491"></path><path d="M275.199291 873.600483c-97.599533 0-177.599758-80.000226-177.599758-177.599758s80.000226-177.599758 177.599758-177.599758 177.599758 80.000226 177.599758 177.599758-78.399726 177.599758-177.599758 177.599758z m0-321.601401c-80.000226 0-145.600081 65.599855-145.600081 145.60008s65.599855 145.600081 145.600081 145.600081 145.600081-65.599855 145.600081-145.600081-65.599855-145.600081-145.600081-145.60008z" fill="#193651" p-id="10492"></path><path d="M275.199291 857.599613c54.400483 0 103.999468-27.200242 132.800209-68.800854-8.000435-16.00087-23.999243-28.800741-44.799548-40.000113l-36.799114-19.199806-19.199807 22.400806c-16.00087 19.199807-46.400048 19.199807-62.400918 0l-20.800306-22.400806-36.799114 19.199806c-20.800306 9.600935-36.799114 23.999243-44.799549 40.000113 30.399178 41.600612 78.399726 68.800854 132.798147 68.800854z" fill="#F16051" p-id="10493"></path><path d="M334.39921 649.600677c0 31.999678-25.599742 81.600725-59.199919 81.600725-31.999678 0-59.199919-49.598985-59.199919-81.600725 0-31.999678 25.599742-59.199919 59.199919-59.19992 31.999678 0 59.199919 27.198179 59.199919 59.19992z" fill="#FDBF5E" p-id="10494"></path><path d="M286.400725 584.000822c-25.599742-4.799436-36.799114 8.000435-38.399613 11.199371 0 0-1.6005 0-1.6005 1.6005-36.799114-8.000435-30.399178 51.199484-30.399178 51.199484 0 9.600935 3.200999 20.800306 6.399936 31.999678 0-8.000435 1.6005-48.000548 20.800306-41.600612 0 0 23.999243 19.199807 57.59942 0 0 0 20.800306-8.000435 23.999242 40.000112 6.399936-9.598872 35.198614-76.799227-38.399613-94.398533z" fill="#193651" p-id="10495"></path><path d="M275.199291 873.600483c-97.599533 0-177.599758-80.000226-177.599758-177.599758s80.000226-177.599758 177.599758-177.599758 177.599758 80.000226 177.599758 177.599758-78.399726 177.599758-177.599758 177.599758z m0-321.601401c-80.000226 0-145.600081 65.599855-145.600081 145.60008s65.599855 145.600081 145.600081 145.600081 145.600081-65.599855 145.600081-145.600081-65.599855-145.600081-145.600081-145.60008zM523.266403 851.139865l-31.999678 0.12375-0.12375-31.999678 31.999678-0.123749zM523.293215 764.702579l-31.999677 0.12375-0.12375-31.997615 31.997615-0.12375zM523.24784 678.358105l-31.999677 0.129938-0.129938-31.999678 32.00174-0.129937zM788.406884 402.771065l-27.649866 16.103995-16.106058-27.649867 27.651929-16.106057zM714.488969 445.462739l-27.651929 16.106058-16.103995-27.651929 27.649867-16.103996zM639.17268 488.962913l-27.651929 16.103995-16.106058-27.649866 27.651929-16.106058zM278.561165 384.416883l-15.90187 27.769491-27.769492-15.90187 15.90187-27.769491zM353.904267 427.323057l-15.887433 27.775679-27.775679-15.887433 15.887433-27.775679zM429.263869 470.381856l-15.899808 27.769492-27.769491-15.90187 15.90187-27.767429z" fill="#193651" p-id="10496"></path></svg>