<?xml version="1.0" standalone="no"?><!DOCTYPE svg PUBLIC "-//W3C//DTD SVG 1.1//EN" "http://www.w3.org/Graphics/SVG/1.1/DTD/svg11.dtd"><svg t="1721055282267" class="icon" viewBox="0 0 1024 1024" version="1.1" xmlns="http://www.w3.org/2000/svg" p-id="11010" xmlns:xlink="http://www.w3.org/1999/xlink" width="128" height="128"><path d="M582.400322 562.719953m-441.599677 0a441.599678 441.599678 0 1 0 883.199355 0 441.599678 441.599678 0 1 0-883.199355 0Z" fill="#1296db" p-id="11011" data-spm-anchor-id="a313x.collections_detail.0.i11.61b53a81wzXKBv" class="selected"></path><path d="M54.400483 501.919534h88.000661c0 172.800322-19.199807 425.60087-43.199049 425.60087-25.601805-1.6005-44.801611-254.401047-44.801612-425.60087z" fill="#F16051" p-id="11012"></path><path d="M97.599533 940.320276c-14.400371 0-30.399178 0-44.799549-161.600951-8.000435-84.799662-12.799871-192.000129-12.799871-278.40029a14.340558 14.340558 0 0 1 14.40037-14.400371h88.000661a14.340558 14.340558 0 0 1 14.400371 14.400371c0 86.400161-4.799436 193.600628-12.799871 278.40029-16.00087 161.600951-32.00174 161.600951-46.402111 161.600951zM68.800854 516.319905c1.6005 156.799452 16.00087 321.599339 28.800741 379.200822 14.400371-57.59942 28.800741-222.399307 28.800741-379.200822H68.800854z" fill="#193651" p-id="11013"></path><path d="M97.599533 314.720904c23.999243 0 43.199049 14.400371 43.199049 185.600193h-86.398099c0-171.201885 19.199807-185.600193 43.19905-185.600193z" fill="#FFFFFF" p-id="11014"></path><path d="M142.399082 516.319905H54.400483a14.340558 14.340558 0 0 1-14.40037-14.400371c0-171.199823 19.199807-200.000564 59.199919-200.000564s57.59942 30.399178 59.19992 198.400065v3.200999c-1.6005 6.399936-8.000435 12.799871-16.00087 12.799871z m-73.598228-28.800741h57.59942c-1.6005-156.799452-20.800306-156.799452-28.800741-156.799452s-27.200242 0-28.798679 156.799452z" fill="#193651" p-id="11015"></path><path d="M97.599533 361.11889c46.400048 0 83.199162-36.799114 83.199162-83.199162S89.599098 193.120066 97.599533 105.119405c0 0-83.199162 126.400274-83.199162 172.800323 0 44.799549 38.399613 83.199162 83.199162 83.199162z" fill="#2EA2DB" p-id="11016"></path><path d="M97.599533 375.51926C43.199049 375.51926 0 332.320211 0 277.919728c0-49.598985 76.799227-168.000886 86.400161-180.800758 3.200999-6.399936 9.600935-8.000435 16.00087-6.399935 6.399936 3.200999 11.199372 9.600935 9.600935 16.00087-4.801499 44.799549 22.398743 76.799227 46.397986 103.999468 19.199807 20.800306 36.799114 41.600612 36.799113 65.599855 1.6005 54.400483-43.199049 99.200032-97.599532 99.200032zM88.000661 149.918954C59.199919 196.319003 30.401241 253.918423 30.401241 277.919728c0 38.399613 30.399178 68.800854 68.800854 68.800854s68.800854-30.399178 68.800854-68.800854c0-12.799871-12.799871-28.800741-28.800741-46.400049-20.802369-22.398743-41.602675-48.000548-51.201547-81.600725z" fill="#193651" p-id="11017"></path><path d="M142.399082 277.919728c-1.6005-6.399936-14.400371-20.800306-23.999243-31.999678-11.199372-12.799871-22.400806-25.599742-33.600177-43.199049-17.599307 33.600177-30.399178 62.400918-30.399179 73.60029a43.019612 43.019612 0 0 0 43.19905 43.199049c24.001305 1.6005 43.201112-17.60137 44.799549-41.600612z" fill="#FFFFFF" p-id="11018"></path><path d="M660.800048 204.319438c-94.400596-28.800741-185.600193 49.598985-172.800322 147.20058 12.799871 94.400596-40.000113 185.600193-126.400274 222.399307l-35.200677 14.40037c-84.799662 35.200677-110.399404 143.999581-49.598984 212.800436 92.800097 103.999468 241.599114 153.600516 385.600757 108.798904 175.999259-54.400483 286.400725-235.199178 254.398985-415.999936-25.599742-142.399082-128.000773-249.599549-255.999485-289.599661z" fill="#CFD0D1" p-id="11019"></path><path d="M553.599581 940.320276c-110.399404 0-214.400935-48.000548-287.999162-129.599211-31.999678-36.799114-44.799549-84.799662-33.600177-131.19971 11.199372-48.000548 43.199049-86.400161 88.00066-103.999468l35.200677-14.400371c81.600725-35.200677 129.59921-120.000338 118.399839-207.998936-6.399936-43.199049 6.399936-84.799662 35.200677-118.399839 38.399613-44.799549 100.800532-62.400918 156.799452-44.799549 139.200145 43.199049 241.599114 158.399952 265.600419 300.799033 33.600177 190.399629-80.000226 375.999823-263.99992 432.000806-36.803239 12.795746-75.202852 17.597245-113.602465 17.597245z m67.200355-726.399904c-35.200677 0-67.200354 14.400371-91.199598 41.600613-22.400806 25.599742-33.600177 59.199919-28.800741 94.400596 12.799871 100.800532-43.199049 198.400064-135.999146 238.400177l-35.200677 14.400371c-36.799114 16.00087-62.400918 46.400048-70.399291 84.799661-8.000435 38.399613 1.6005 76.799227 27.200242 105.599968 67.200354 76.799227 164.799887 120.000338 265.600419 120.000338 35.200677 0 70.399291-4.799436 105.599968-16.00087 169.599323-52.799984 275.199291-223.999807 244.800113-399.999065-23.999243-132.800209-116.799339-238.400177-246.400613-278.40029-11.201434-3.200999-22.400806-4.801499-35.200676-4.801499z" fill="#193651" p-id="11020"></path><path d="M718.399468 825.119373c-22.400806 14.400371-46.400048 23.999243-70.399291 31.999678-118.399839 36.799114-246.400612 0-327.999275-92.800097-16.00087-17.599307-22.400806-40.000113-19.199806-63.999355 3.200999-23.999243 17.599307-43.199049 36.799113-56.000983 3.200999-1.6005 8.000435-4.799436 11.199372-6.399936l35.200677-14.40037c12.799871-4.799436 25.599742-11.199372 36.799114-19.199807 89.599098-56.000983 137.599646-158.399952 123.199274-262.39942-4.799436-36.799114 16.00087-65.599855 36.799114-78.399726 19.199807-12.799871 43.199049-14.400371 65.599855-8.000435 113.600403 35.200677 196.799565 129.59921 217.599871 246.400612 20.802369 126.400274-36.797051 255.999484-145.598018 323.199839z" fill="#FFFFFF" p-id="11021"></path><path d="M368.164388 720.919842a60.798356 60.798356 0 1 0 121.596713 0 60.798356 60.798356 0 1 0-121.596713 0Z" fill="#E1E6E9" p-id="11022"></path><path d="M535.992024 758.048956a60.798356 60.798356 0 1 0 121.596713 0 60.798356 60.798356 0 1 0-121.596713 0Z" fill="#4FBF9F" p-id="11023"></path><path d="M681.42298 653.719488a60.798356 60.798356 0 1 0 121.596712 0 60.798356 60.798356 0 1 0-121.596712 0Z" fill="#FDBF5E" p-id="11024"></path><path d="M702.336723 484.18204a60.798356 60.798356 0 1 0 121.596713 0 60.798356 60.798356 0 1 0-121.596713 0Z" fill="#2EA2DB" p-id="11025"></path><path d="M580.62451 367.640513a60.798356 60.798356 0 1 0 121.596713 0 60.798356 60.798356 0 1 0-121.596713 0Z" fill="#F16051" p-id="11026"></path><path d="M620.832936 480.108603l-15.023246 24.570555-25.937992-15.856495 15.021183-24.572617zM577.221386 549.796332l-15.031495 24.564368-25.92768-15.870933 15.031496-24.562305z" fill="#193651" p-id="11027"></path><path d="M534.995837 620.428686l-15.023246 24.572617-25.937992-15.856495 15.023246-24.572618zM471.998856 140.320082c-48.000548 0-103.999468-12.799871-163.199388-49.598985C246.400612 52.319422 195.199065 39.51955 158.399952 55.520421c-36.799114 14.400371-46.400048 52.799984-46.400049 52.799983-1.6005 8.000435-9.600935 12.799871-17.599307 11.199372s-12.799871-9.600935-11.199371-17.599307c0-1.6005 12.799871-52.799984 63.999355-73.60029 44.799549-19.199807 103.999468-6.399936 175.999259 38.399613 180.800757 110.399404 318.400403-17.599307 324.800338-22.400806 6.399936-4.799436 14.400371-4.799436 20.800306 0 4.799436 6.399936 4.799436 14.400371 0 20.800307-4.801499 3.200999-81.600725 75.20079-196.801627 75.200789z" fill="#193651" p-id="11028"></path></svg>