<?xml version="1.0" standalone="no"?><!DOCTYPE svg PUBLIC "-//W3C//DTD SVG 1.1//EN" "http://www.w3.org/Graphics/SVG/1.1/DTD/svg11.dtd"><svg t="1721130657443" class="icon" viewBox="0 0 1024 1024" version="1.1" xmlns="http://www.w3.org/2000/svg" p-id="4060" xmlns:xlink="http://www.w3.org/1999/xlink" width="128" height="128"><path d="M512 512m-414 0a414 414 0 1 0 828 0 414 414 0 1 0-828 0Z" fill="#F0C48A" p-id="4061"></path><path d="M798.4 924.2H225.6c-69.4 0-125.8-56.4-125.8-125.8V225.6c0-69.4 56.4-125.8 125.8-125.8h572.6c69.4 0 125.8 56.4 125.8 125.8v572.6c0.2 69.6-56.2 126-125.6 126zM225.6 123.2c-56.4 0-102.4 46-102.4 102.4v572.6c0 56.4 46 102.4 102.4 102.4h572.6c56.4 0 102.4-46 102.4-102.4V225.6c0-56.4-46-102.4-102.4-102.4H225.6z" fill="#4C4372" p-id="4062"></path><path d="M353.8 304.8c-20 0-36.4-16.2-36.4-36.4V48c0-20 16.2-36.4 36.4-36.4 20 0 36.4 16.2 36.4 36.4v220.4c0 20.2-16.2 36.4-36.4 36.4zM512 304.8c-20 0-36.4-16.2-36.4-36.4V48c0-20 16.2-36.4 36.4-36.4 20 0 36.4 16.2 36.4 36.4v220.4c0 20.2-16.4 36.4-36.4 36.4zM670.2 304.8c-20 0-36.4-16.2-36.4-36.4V48c0-20 16.2-36.4 36.4-36.4 20 0 36.4 16.2 36.4 36.4v220.4c-0.2 20.2-16.4 36.4-36.4 36.4zM353.8 1012.2c-20 0-36.4-16.2-36.4-36.4V755.4c0-20 16.2-36.4 36.4-36.4 20 0 36.4 16.2 36.4 36.4V976c0 20-16.2 36.2-36.4 36.2zM512 1012.2c-20 0-36.4-16.2-36.4-36.4V755.4c0-20 16.2-36.4 36.4-36.4 20 0 36.4 16.2 36.4 36.4V976c0 20-16.4 36.2-36.4 36.2zM670.2 1012.2c-20 0-36.4-16.2-36.4-36.4V755.4c0-20 16.2-36.4 36.4-36.4 20 0 36.4 16.2 36.4 36.4V976c-0.2 20-16.4 36.2-36.4 36.2zM719.2 353.8c0-20 16.2-36.4 36.4-36.4H976c20 0 36.4 16.2 36.4 36.4 0 20-16.2 36.4-36.4 36.4H755.4c-20 0-36.2-16.2-36.2-36.4zM719.2 512c0-20 16.2-36.4 36.4-36.4H976c20 0 36.4 16.2 36.4 36.4 0 20-16.2 36.4-36.4 36.4H755.4c-20 0-36.2-16.4-36.2-36.4zM719.2 670.2c0-20 16.2-36.4 36.4-36.4H976c20 0 36.4 16.2 36.4 36.4 0 20-16.2 36.4-36.4 36.4H755.4c-20-0.2-36.2-16.4-36.2-36.4z" fill="#FD919E" p-id="4063"></path><path d="M11.8 353.8c0-20 16.2-36.4 36.4-36.4h220.4c20 0 36.4 16.2 36.4 36.4 0 20-16.2 36.4-36.4 36.4H48c-20 0-36.2-16.2-36.2-36.4zM11.8 512c0-20 16.2-36.4 36.4-36.4h220.4c20 0 36.4 16.2 36.4 36.4 0 20-16.2 36.4-36.4 36.4H48c-20 0-36.2-16.4-36.2-36.4zM11.8 670.2c0-20 16.2-36.4 36.4-36.4h220.4c20 0 36.4 16.2 36.4 36.4 0 20-16.2 36.4-36.4 36.4H48c-20-0.2-36.2-16.4-36.2-36.4z" fill="#FD919E" p-id="4064"></path><path d="M353.8 316.6c-26.6 0-48-21.6-48-48V48c0-26.6 21.6-48 48-48 26.6 0 48 21.6 48 48v220.4c0.2 26.6-21.4 48.2-48 48.2z m0-293.2c-13.6 0-24.6 11-24.6 24.6v220.4c0 13.6 11 24.6 24.6 24.6s24.6-11 24.6-24.6V48c0.2-13.4-11-24.6-24.6-24.6zM512 316.6c-26.6 0-48-21.6-48-48V48c0-26.6 21.6-48 48-48 26.6 0 48 21.6 48 48v220.4c0 26.6-21.4 48.2-48 48.2z m0-293.2c-13.6 0-24.6 11-24.6 24.6v220.4c0 13.6 11 24.6 24.6 24.6 13.6 0 24.6-11 24.6-24.6V48c0-13.4-11-24.6-24.6-24.6zM670.2 316.6c-26.6 0-48-21.6-48-48V48c0-26.6 21.6-48 48-48 26.6 0 48 21.6 48 48v220.4c0 26.6-21.6 48.2-48 48.2z m0-293.2c-13.6 0-24.6 11-24.6 24.6v220.4c0 13.6 11 24.6 24.6 24.6 13.6 0 24.6-11 24.6-24.6V48c0-13.4-11-24.6-24.6-24.6z" fill="#4C4372" p-id="4065"></path><path d="M353.8 1024c-26.6 0-48-21.6-48-48V755.4c0-26.6 21.6-48 48-48 26.6 0 48 21.6 48 48V976c0.2 26.4-21.4 48-48 48z m0-293.2c-13.6 0-24.6 11-24.6 24.6V976c0 13.6 11 24.6 24.6 24.6s24.6-11 24.6-24.6V755.4c0.2-13.4-11-24.6-24.6-24.6zM512 1024c-26.6 0-48-21.6-48-48V755.4c0-26.6 21.6-48 48-48 26.6 0 48 21.6 48 48V976c0 26.4-21.4 48-48 48z m0-293.2c-13.6 0-24.6 11-24.6 24.6V976c0 13.6 11 24.6 24.6 24.6 13.6 0 24.6-11 24.6-24.6V755.4c0-13.4-11-24.6-24.6-24.6zM670.2 1024c-26.6 0-48-21.6-48-48V755.4c0-26.6 21.6-48 48-48 26.6 0 48 21.6 48 48V976c0 26.4-21.6 48-48 48z m0-293.2c-13.6 0-24.6 11-24.6 24.6V976c0 13.6 11 24.6 24.6 24.6 13.6 0 24.6-11 24.6-24.6V755.4c0-13.4-11-24.6-24.6-24.6z" fill="#4C4372" p-id="4066"></path><path d="M976 402H755.4c-26.6 0-48-21.6-48-48 0-26.6 21.6-48 48-48H976c26.6 0 48 21.6 48 48s-21.6 48-48 48z m-220.6-72.8c-13.6 0-24.6 11-24.6 24.6 0 13.6 11 24.6 24.6 24.6H976c13.6 0 24.6-11 24.6-24.6 0-13.6-11-24.6-24.6-24.6H755.4zM976 560H755.4c-26.6 0-48-21.6-48-48s21.6-48 48-48H976c26.6 0 48 21.6 48 48s-21.6 48-48 48z m-220.6-72.6c-13.6 0-24.6 11-24.6 24.6 0 13.6 11 24.6 24.6 24.6H976c13.6 0 24.6-11 24.6-24.6 0-13.6-11-24.6-24.6-24.6H755.4zM976 718.2H755.4c-26.6 0-48-21.6-48-48s21.6-48 48-48H976c26.6 0 48 21.6 48 48s-21.6 48-48 48z m-220.6-72.8c-13.6 0-24.6 11-24.6 24.6 0 13.6 11 24.6 24.6 24.6H976c13.6 0 24.6-11 24.6-24.6 0-13.6-11-24.6-24.6-24.6H755.4z" fill="#4C4372" p-id="4067"></path><path d="M268.6 402H48c-26.6 0-48-21.6-48-48 0-26.6 21.6-48 48-48h220.4c26.6 0 48 21.6 48 48 0.2 26.4-21.4 48-47.8 48zM48 329.2c-13.6 0-24.6 11-24.6 24.6 0 13.6 11 24.6 24.6 24.6h220.4c13.6 0 24.6-11 24.6-24.6 0-13.6-11-24.6-24.6-24.6H48zM268.6 560H48c-26.6 0-48-21.6-48-48s21.6-48 48-48h220.4c26.6 0 48 21.6 48 48s-21.4 48-47.8 48zM48 487.4c-13.6 0-24.6 11-24.6 24.6 0 13.6 11 24.6 24.6 24.6h220.4c13.6 0 24.6-11 24.6-24.6 0-13.6-11-24.6-24.6-24.6H48zM268.6 718.2H48c-26.6 0-48-21.6-48-48s21.6-48 48-48h220.4c26.6 0 48 21.6 48 48s-21.4 48-47.8 48zM48 645.4c-13.6 0-24.6 11-24.6 24.6 0 13.6 11 24.6 24.6 24.6h220.4c13.6 0 24.6-11 24.6-24.6 0-13.6-11-24.6-24.6-24.6H48z" fill="#4C4372" p-id="4068"></path><path d="M754.6 851.2H269.4c-53.4 0-96.8-43.2-96.8-96.8V269.4c0-53.4 43.2-96.8 96.8-96.8h485.2c53.4 0 96.8 43.2 96.8 96.8v485.2c-0.2 53.4-43.4 96.6-96.8 96.6z" fill="#D3E6F8" p-id="4069"></path><path d="M757.4 172.8v678.4c52.2-1.4 94-44.2 94-96.6V269.4c-0.2-52.4-42-95.2-94-96.6z" fill="#A4CFF2" p-id="4070"></path><path d="M591.4 280.6L368.2 504h111.6l-85.4 239.4L655.8 512h-120.4z" fill="#FD919E" p-id="4071"></path><path d="M394.4 755c-2.2 0-4.6-0.6-6.6-2-4.4-3-6.2-8.6-4.4-13.6l79.8-223.8h-95c-4.8 0-9-2.8-10.8-7.2-1.8-4.4-0.8-9.4 2.6-12.8l223.2-223.2c3.8-3.8 9.4-4.6 14-2 4.6 2.6 6.8 7.8 5.6 13l-52.6 216.8h105.6c4.8 0 9.2 3 11 7.6 1.8 4.6 0.4 9.8-3.2 13L402 752.2c-2.2 1.8-4.8 2.8-7.6 2.8z m2-262.8h83.4c3.8 0 7.4 1.8 9.6 5 2.2 3.2 2.8 7.2 1.4 10.6l-70.2 196.4 204.2-180.6h-89.6c-3.6 0-7-1.6-9.2-4.4-2.2-2.8-3-6.6-2.2-10l46.2-190.8-173.6 173.8z" fill="#4C4372" p-id="4072"></path><path d="M754.6 863H269.4c-59.8 0-108.4-48.6-108.4-108.4V269.4c0-59.8 48.6-108.4 108.4-108.4h485.2c59.8 0 108.4 48.6 108.4 108.4v485.2c0 59.8-48.6 108.4-108.4 108.4zM269.4 184.4c-46.8 0-85 38.2-85 85v485.2c0 46.8 38.2 85 85 85h485.2c46.8 0 85-38.2 85-85V269.4c0-46.8-38.2-85-85-85H269.4z" fill="#4C4372" p-id="4073"></path></svg>