<?xml version="1.0" standalone="no"?><!DOCTYPE svg PUBLIC "-//W3C//DTD SVG 1.1//EN" "http://www.w3.org/Graphics/SVG/1.1/DTD/svg11.dtd"><svg t="1720921402006" class="icon" viewBox="0 0 1024 1024" version="1.1" xmlns="http://www.w3.org/2000/svg" p-id="4251" xmlns:xlink="http://www.w3.org/1999/xlink" width="128" height="128"><path d="M241.84 449.14h0.16a72.12 72.12 0 0 1 72 72.12v201.28a6.4 6.4 0 0 1-6.4 6.4H176.14a6.4 6.4 0 0 1-6.4-6.4V521.26a72.12 72.12 0 0 1 72.12-72.12zM482.66 299.26h0.1a72.12 72.12 0 0 1 72.12 72.12v351.16a6.4 6.4 0 0 1-6.4 6.4h-131.52a6.4 6.4 0 0 1-6.4-6.4V371.38a72.12 72.12 0 0 1 72.1-72.12zM723.48 144h0.1a72.12 72.12 0 0 1 72.12 72.12v523.6a6.4 6.4 0 0 1-6.4 6.4h-131.52a6.4 6.4 0 0 1-6.4-6.4v-523.6A72.12 72.12 0 0 1 723.48 144z" fill="#748FFC" p-id="4252"></path><path d="M106 695.36m51.5 0l650.42 0q51.5 0 51.5 51.5l0 0q0 51.5-51.5 51.5l-650.42 0q-51.5 0-51.5-51.5l0 0q0-51.5 51.5-51.5Z" fill="#495057" p-id="4253"></path><path d="M637.96 732.2a148.02 147.8 0 1 0 296.04 0 148.02 147.8 0 1 0-296.04 0Z" fill="#20C997" p-id="4254"></path><path d="M729.5 800.22a11.28 11.28 0 0 1-8-19.26l112.98-112.82a11.28 11.28 0 1 1 16 16l-112.98 112.82a11.26 11.26 0 0 1-8 3.26z" fill="#FFFFFF" p-id="4255"></path><path d="M842.48 769.36a11.28 11.28 0 0 1-11.3-11.28v-71.34h-71.42a11.28 11.28 0 1 1 0-22.56h82.72a11.28 11.28 0 0 1 11.3 11.28V758a11.28 11.28 0 0 1-11.3 11.36z" fill="#FFFFFF" p-id="4256"></path></svg>