<?xml version="1.0" standalone="no"?><!DOCTYPE svg PUBLIC "-//W3C//DTD SVG 1.1//EN" "http://www.w3.org/Graphics/SVG/1.1/DTD/svg11.dtd"><svg t="1721055489219" class="icon" viewBox="0 0 1024 1024" version="1.1" xmlns="http://www.w3.org/2000/svg" p-id="19882" xmlns:xlink="http://www.w3.org/1999/xlink" width="128" height="128"><path d="M339.200709 565.599202m-339.200709 0a339.200709 339.200709 0 1 0 678.401418 0 339.200709 339.200709 0 1 0-678.401418 0Z" fill="#F16051" p-id="19883"></path><path d="M809.599065 247.200862m-214.400934 0a214.400935 214.400935 0 1 0 428.801869 0 214.400935 214.400935 0 1 0-428.801869 0Z" fill="#F16051" p-id="19884"></path><path d="M324.800338 239.200427m-25.599742 0a25.599742 25.599742 0 1 0 51.199485 0 25.599742 25.599742 0 1 0-51.199485 0Z" fill="#FFFFFF" p-id="19885"></path><path d="M324.800338 280.798977c-22.400806 0-41.600612-19.199807-41.600612-41.600612s19.199807-41.600612 41.600612-41.600613c22.400806 0 41.600612 19.199807 41.600613 41.600613s-19.201869 41.600612-41.600613 41.600612z m0-51.199485c-6.399936 0-11.199372 4.799436-11.199371 11.199372 0 6.399936 4.799436 11.199372 11.199371 11.199372s11.199372-4.799436 11.199372-11.199372c-1.6005-6.399936-6.399936-11.199372-11.199372-11.199372z" fill="#193651" p-id="19886"></path><path d="M411.2005 165.600137m-35.200677 0a35.200677 35.200677 0 1 0 70.401353 0 35.200677 35.200677 0 1 0-70.401353 0Z" fill="#FFFFFF" p-id="19887"></path><path d="M411.2005 215.199122c-27.200242 0-51.199484-22.400806-51.199485-51.199485 0-27.200242 22.400806-51.199484 51.199485-51.199484 27.200242 0 51.199484 22.400806 51.199484 51.199484 0 28.800741-22.400806 51.199484-51.199484 51.199485z m0-70.399291c-11.199372 0-19.199807 9.600935-19.199807 19.199806 0 11.199372 9.600935 19.199807 19.199807 19.199807 9.600935 0 19.199807-9.600935 19.199806-19.199807 1.6005-9.598872-8.000435-19.199807-19.199806-19.199806z" fill="#193651" p-id="19888"></path><path d="M521.599903 82.400975m-48.000548 0a48.000548 48.000548 0 1 0 96.001096 0 48.000548 48.000548 0 1 0-96.001096 0Z" fill="#FFFFFF" p-id="19889"></path><path d="M521.599903 144.799831c-35.200677 0-62.400918-28.800741-62.400918-62.400919 0-35.200677 28.800741-62.400918 62.400918-62.400918 35.200677 0 62.400918 28.800741 62.400919 62.400918 0 35.200677-27.200242 62.400918-62.400919 62.400919z m0-94.400596c-17.599307 0-31.999678 14.400371-31.999677 31.999677s14.400371 31.999678 31.999677 31.999678 31.999678-14.400371 31.999678-31.999678-14.400371-31.999678-31.999678-31.999677z" fill="#193651" p-id="19890"></path><path d="M609.600564 915.999283l-182.399194-278.40029v-233.598679h-175.999259V637.601055L67.200354 915.999283c-20.800306 30.401241 1.6005 71.999791 38.399614 71.99979h465.59892c36.801176 0 59.199919-40.000113 38.401676-71.99979z" fill="#FFFFFF" p-id="19891"></path><path d="M571.198888 1003.999944H105.599968c-22.400806 0-43.199049-12.799871-54.400484-31.999678-11.199372-20.800306-9.600935-43.199049 3.200999-62.400919l182.399195-275.199291V404.000314c0-8.000435 6.399936-16.00087 16.00087-16.00087h175.999259c8.000435 0 16.00087 6.399936 16.00087 16.00087v228.799243l180.800757 275.199291c12.799871 19.199807 12.799871 43.199049 3.200999 62.400918-14.402433 20.800306-35.202739 33.600177-57.603545 33.600178zM265.600419 418.400685v217.599871c0 3.200999-1.6005 6.399936-3.200999 8.000435L80.000226 925.600218c-6.399936 9.600935-6.399936 20.800306-1.6005 31.999677 4.799436 9.600935 16.00087 16.00087 27.200242 16.00087h465.59892c11.199372 0 22.400806-6.399936 27.200242-16.00087 4.799436-9.600935 4.799436-22.400806-1.6005-31.999677l-182.399194-280.00079c-1.6005-3.200999-3.200999-4.799436-3.200999-8.000435V418.400685h-145.598018z" fill="#193651" p-id="19892"></path><path d="M508.800032 762.398767s-99.200032-49.598985-171.199823 0c-88.000661 60.800419-169.599323 0-169.599323 0l-100.800532 153.600516c-20.800306 30.401241 1.6005 71.999791 38.399614 71.99979h465.59892c36.799114 0 59.199919-40.000113 38.399613-71.99979l-100.798469-153.600516z" fill="#4FBF9F" p-id="19893"></path><path d="M220.80087 319.200653h236.799678v83.199162H220.80087z" fill="#FFFFFF" p-id="19894"></path><path d="M457.600548 418.400685H220.80087c-8.000435 0-16.00087-6.399936-16.00087-16.00087v-83.199162c0-8.000435 6.399936-16.00087 16.00087-16.000871h236.799678c8.000435 0 16.00087 6.399936 16.00087 16.000871v83.199162c-0.002062 9.600935-8.002498 16.00087-16.00087 16.00087z m-222.40137-30.401241h206.4005v-52.799984H235.199178v52.799984zM571.198888 1003.999944H105.599968c-22.400806 0-43.199049-12.799871-54.400484-31.999678-11.199372-20.800306-9.600935-43.199049 3.200999-62.400919l183.999694-280.000789c4.799436-6.399936 14.400371-9.600935 20.800306-4.799436 6.399936 4.799436 9.600935 14.400371 4.799436 20.800306L80.000226 925.600218c-6.399936 9.600935-6.399936 20.800306-1.6005 31.999677 4.799436 9.600935 16.00087 16.00087 27.200242 16.00087h465.59892c11.199372 0 22.400806-6.399936 27.200242-16.00087 4.799436-9.600935 4.799436-22.400806-1.6005-31.999677l-182.399194-280.00079c-4.799436-6.399936-3.200999-16.00087 4.799436-20.800306 6.399936-4.799436 16.00087-3.200999 20.800306 4.799436l182.399195 280.000789c12.799871 19.199807 12.799871 43.199049 3.200999 62.400919-11.199372 19.199807-31.999678 31.999678-54.400484 31.999678zM297.600097 479.199041h-46.400049c-8.000435 0-16.00087-6.399936-16.00087-16.00087 0-8.000435 6.399936-16.00087 16.00087-16.00087h46.400049c8.000435 0 16.00087 6.399936 16.00087 16.00087-0.002062 9.600935-8.000435 16.00087-16.00087 16.00087zM337.600209 543.200459h-88.00066c-8.000435 0-16.00087-6.399936-16.00087-16.00087 0-8.000435 6.399936-16.00087 16.00087-16.00087h88.00066c8.000435 0 16.00087 6.399936 16.000871 16.00087-0.002062 9.600935-6.401998 16.00087-16.000871 16.00087zM297.600097 607.199815h-46.400049c-8.000435 0-16.00087-6.399936-16.00087-16.00087 0-8.000435 6.399936-16.00087 16.00087-16.000871h46.400049c8.000435 0 16.00087 6.399936 16.00087 16.000871-0.002062 9.600935-8.000435 16.00087-16.00087 16.00087z" fill="#193651" p-id="19895"></path><path d="M729.59884 247.200862h175.999259v593.599694h-175.999259z" fill="#FFFFFF" p-id="19896"></path><path d="M905.600161 855.198864h-175.999259c-8.000435 0-16.00087-6.399936-16.00087-16.00087v-591.999194c0-8.000435 6.399936-16.00087 16.00087-16.000871h175.999259c8.000435 0 16.00087 6.399936 16.00087 16.000871V840.798493c-0.002062 8.000435-8.000435 14.400371-16.00087 14.400371z m-160.000451-30.399178h145.600081V261.59917h-145.600081v563.200516z" fill="#193651" p-id="19897"></path><path d="M729.59884 455.199799v385.600757h176.001321V455.199799" fill="#FDBF5E" p-id="19898"></path><path d="M905.600161 855.198864h-175.999259c-8.000435 0-16.00087-6.399936-16.00087-16.00087V455.199799c0-8.000435 6.399936-16.00087 16.00087-16.000871 8.000435 0 16.00087 6.399936 16.00087 16.000871v369.599887h145.600081v-369.599887c0-8.000435 6.399936-16.00087 16.00087-16.000871 8.000435 0 16.00087 6.399936 16.00087 16.000871v385.600757c-1.604625 7.998373-9.602997 14.398308-17.603432 14.398308z" fill="#193651" p-id="19899"></path><path d="M699.199662 162.399138h236.799677v83.199162H699.199662z" fill="#FFFFFF" p-id="19900"></path><path d="M935.999339 261.59917H699.199662c-8.000435 0-16.00087-6.399936-16.00087-16.00087V162.399138c0-8.000435 6.399936-16.00087 16.00087-16.00087h236.799677c8.000435 0 16.00087 6.399936 16.00087 16.00087v83.199162c0 9.600935-6.399936 16.00087-16.00087 16.00087z m-222.399307-30.399178h206.4005v-52.799984H713.600032v52.799984zM809.599065 344.800395h-80.000225c-8.000435 0-16.00087-6.399936-16.00087-16.00087 0-8.000435 6.399936-16.00087 16.00087-16.00087h80.000225c8.000435 0 16.00087 6.399936 16.000871 16.00087 0 8.000435-6.399936 16.00087-16.000871 16.00087zM779.199887 429.600056h-49.598985c-8.000435 0-16.00087-6.399936-16.00087-16.00087 0-8.000435 6.399936-16.00087 16.00087-16.00087h49.598985c8.000435 0 16.00087 6.399936 16.00087 16.00087 0 9.600935-8.000435 16.00087-16.00087 16.00087zM809.599065 516.000218h-80.000225c-8.000435 0-16.00087-6.399936-16.00087-16.000871 0-8.000435 6.399936-16.00087 16.00087-16.00087h80.000225c8.000435 0 16.00087 6.399936 16.000871 16.00087 0 9.600935-6.399936 16.00087-16.000871 16.000871zM779.199887 602.400379h-49.598985c-8.000435 0-16.00087-6.399936-16.00087-16.00087 0-8.000435 6.399936-16.00087 16.00087-16.000871h49.598985c8.000435 0 16.00087 6.399936 16.00087 16.000871 0 8.000435-8.000435 16.00087-16.00087 16.00087zM809.599065 687.20004h-80.000225c-8.000435 0-16.00087-6.399936-16.00087-16.00087 0-8.000435 6.399936-16.00087 16.00087-16.00087h80.000225c8.000435 0 16.00087 6.399936 16.000871 16.00087 0 9.600935-6.399936 16.00087-16.000871 16.00087zM779.199887 773.600201h-49.598985c-8.000435 0-16.00087-6.399936-16.00087-16.00087 0-8.000435 6.399936-16.00087 16.00087-16.00087h49.598985c8.000435 0 16.00087 6.399936 16.00087 16.00087 0 9.600935-8.000435 16.00087-16.00087 16.00087z" fill="#193651" p-id="19901"></path><path d="M406.399001 856.799364h30.399178v30.399178h-30.399178zM323.199839 856.799364h30.399178v30.399178h-30.399178zM240.000677 856.799364h30.399178v30.399178h-30.399178z" fill="#193651" p-id="19902"></path></svg>