<?xml version="1.0" standalone="no"?><!DOCTYPE svg PUBLIC "-//W3C//DTD SVG 1.1//EN" "http://www.w3.org/Graphics/SVG/1.1/DTD/svg11.dtd"><svg t="1721055076427" class="icon" viewBox="0 0 1024 1024" version="1.1" xmlns="http://www.w3.org/2000/svg" p-id="10300" xmlns:xlink="http://www.w3.org/1999/xlink" width="128" height="128"><path d="M719.999968 484.80079m-304.000032 0a304.000032 304.000032 0 1 0 608.000064 0 304.000032 304.000032 0 1 0-608.000064 0Z" fill="#F16051" p-id="10301"></path><path d="M599.999629 65.599855h-527.999838A57.358107 57.358107 0 0 0 14.400371 123.199275v777.599388a57.358107 57.358107 0 0 0 57.59942 57.59942h527.999838a57.358107 57.358107 0 0 0 57.59942-57.59942V123.199275c0-31.999678-27.200242-57.59942-57.59942-57.59942z" fill="#FFFFFF" p-id="10302"></path><path d="M599.999629 972.800516h-527.999838C31.999678 972.800516 0 940.798775 0 900.800725V123.199275c0-40.000113 31.999678-71.999791 71.999791-71.999791h527.999838c40.000113 0 71.999791 31.999678 71.999791 71.999791v777.599388c0 40.000113-33.600177 72.001853-71.999791 72.001853z m-527.999838-892.80029a43.019612 43.019612 0 0 0-43.19905 43.199049v777.599388a43.019612 43.019612 0 0 0 43.19905 43.199049h527.999838a43.019612 43.019612 0 0 0 43.19905-43.199049V123.199275a43.019612 43.019612 0 0 0-43.19905-43.199049h-527.999838z" fill="#193651" p-id="10303"></path><path d="M71.999791 180.800757h527.999838v614.4h-527.999838z" fill="#2EA2DB" p-id="10304"></path><path d="M238.400177 123.199275h28.800741v28.800741h-28.800741zM321.599339 123.199275h28.800742v28.800741h-28.800742zM403.200064 123.199275h28.800742v28.800741h-28.800742z" fill="#193651" p-id="10305"></path><path d="M335.99971 873.600483m-36.799114 0a36.799114 36.799114 0 1 0 73.598228 0 36.799114 36.799114 0 1 0-73.598228 0Z" fill="#FFFFFF" p-id="10306"></path><path d="M335.99971 924.799968c-28.800741 0-51.199484-22.400806-51.199484-51.199485 0-28.800741 22.400806-51.199484 51.199484-51.199484s51.199484 22.400806 51.199484 51.199484c0 28.798679-23.999243 51.199484-51.199484 51.199485z m0-73.60029c-12.799871 0-22.400806 9.600935-22.400806 22.400805s9.600935 22.400806 22.400806 22.400806 22.400806-9.600935 22.400806-22.400806-11.201434-22.400806-22.400806-22.400805z" fill="#193651" p-id="10307"></path><path d="M392.000693 608.000064v-33.600177l-33.600177-6.399935c-3.200999-11.199372-6.399936-22.400806-12.799871-31.999678l19.199806-28.800741-23.999243-23.999243-28.800741 19.199807c-9.600935-6.399936-20.800306-11.199372-31.999677-12.799871l-6.399936-33.600178h-33.600177l-6.399936 33.600178c-11.199372 3.200999-22.400806 6.399936-31.999678 12.799871l-25.599742-17.599307-23.999242 23.999242 19.199806 28.800741c-6.399936 9.600935-11.199372 20.800306-12.799871 31.999678l-33.600177 6.399936v31.999677l33.600177 6.399936c3.200999 11.199372 6.399936 22.400806 12.799871 31.999678l-19.199806 28.800741 23.999242 23.999243 28.800741-19.199807c9.600935 6.399936 20.800306 11.199372 31.999678 12.799871l6.399936 33.600177h33.600177l6.399936-33.600177c11.199372-3.200999 22.400806-6.399936 31.999677-12.799871l28.800742 19.199807 23.999242-23.999243-19.199806-28.800741c6.399936-9.600935 11.199372-20.800306 12.799871-31.999678l30.399178-6.399936z m-134.400709 30.399179c-27.200242 0-48.000548-20.800306-48.000548-48.000548 0-27.200242 20.800306-48.000548 48.000548-48.000548s48.000548 20.800306 48.000548 48.000548c0 27.200242-20.800306 48.000548-48.000548 48.000548z" fill="#FFFFFF" p-id="10308"></path><path d="M467.19942 361.599452l-8.000435-25.599742-27.200242 1.600499c-4.799436-8.000435-9.600935-16.00087-17.599307-22.400805l8.000435-25.599742-22.400806-12.799871-17.599307 20.800306c-8.000435-3.200999-17.599307-3.200999-27.200241-3.200999l-12.799871-23.999243-25.599743 6.399936 3.200999 27.200241c-8.000435 4.799436-16.00087 9.600935-22.400805 17.599307l-25.599743-8.000435-12.799871 22.400806 20.800307 17.599307c-3.200999 8.000435-3.200999 17.599307-3.200999 27.200242l-23.999243 12.799871 6.399935 25.599742 27.200242-1.600499c4.799436 8.000435 9.600935 16.00087 17.599307 22.400805l-8.000435 25.599742 22.400806 12.799872 17.599307-20.800307c8.000435 3.200999 17.599307 3.200999 27.200242 3.200999l12.799871 23.999243 25.599742-6.399935-1.6005-27.200242c8.000435-4.799436 16.00087-9.600935 22.400806-17.599307l25.599742 8.000435 12.799871-22.400806-20.800306-17.599307c3.200999-8.000435 3.200999-17.599307 3.200999-27.200242l23.999243-12.799871z m-97.599533 52.799984c-20.800306 6.399936-41.600612-6.399936-48.000548-27.200242s6.399936-41.600612 27.200242-48.000548 41.600612 6.399936 48.000548 27.200242c6.399936 20.800306-6.399936 43.201112-27.200242 48.000548z" fill="#FFFFFF" p-id="10309"></path><path d="M907.200661 310.399968H531.200838v275.199291h47.998485v102.401031l171.199823-102.401031h156.801515z" fill="#FDBF5E" p-id="10310"></path><path d="M571.198888 700.800161c-4.799436-3.200999-8.000435-8.000435-8.000435-12.799871v-86.400161h-33.600177a14.340558 14.340558 0 0 1-14.400371-14.400371V310.399968a14.340558 14.340558 0 0 1 14.400371-14.400371h375.999823a14.340558 14.340558 0 0 1 14.40037 14.400371v275.199291a14.340558 14.340558 0 0 1-14.40037 14.40037h-152.000016l-169.599324 99.200033c-1.598437 3.200999-7.998373 3.200999-12.799871 1.600499z m-25.599742-129.601273h33.600177a14.340558 14.340558 0 0 1 14.400371 14.400371v76.799226l150.399516-88.00066c1.6005-1.6005 4.799436-1.6005 8.000436-1.6005h142.399081V324.800338H545.599146v246.39855z" fill="#193651" p-id="10311"></path><path d="M636.800806 527.999839h-48.000548v-160.000451h260.79892V527.999839h-113.59834l-99.200032 59.199919z" fill="#FFFFFF" p-id="10312"></path><path d="M728.000403 471.998856h-17.599307v-9.600935c0-4.799436 0-8.000435 1.600499-9.600934s3.200999-4.799436 6.399936-8.000435l11.199371-11.199372c3.200999-3.200999 3.200999-6.399936 3.200999-9.600934s-1.6005-8.000435-3.200999-9.600935c-3.200999-3.200999-6.399936-3.200999-9.600934-3.200999-4.799436 0-8.000435 1.6005-9.600935 3.200999-3.200999 3.200999-4.799436 6.399936-4.799436 9.600935H686.399791c1.6005-9.600935 4.799436-17.599307 11.199371-22.400806 6.399936-4.799436 14.400371-8.000435 23.999243-8.000435s17.599307 3.200999 23.999242 8.000435c6.399936 4.799436 9.600935 12.799871 9.600935 22.400806 0 6.399936-1.6005 11.199372-4.799436 16.00087-1.6005 3.200999-3.200999 4.799436-4.799436 4.799436l-4.799436 4.799436-4.799436 4.799436-3.200999 3.200999c-1.6005 1.6005-3.200999 6.399936-3.200999 9.600934v4.799436h-1.598437z m-8.000435 35.200677c-3.200999 0-6.399936-1.6005-8.000435-3.200999-3.200999-1.6005-3.200999-4.799436-3.200999-8.000435s1.6005-6.399936 3.200999-8.000435c3.200999-1.6005 4.799436-3.200999 8.000435-3.200999s6.399936 1.6005 8.000435 3.200999c3.200999 1.6005 3.200999 4.799436 3.200999 8.000435s-1.6005 6.399936-3.200999 8.000435c-1.6005 1.6005-4.801499 3.200999-8.000435 3.200999z" fill="#193651" p-id="10313"></path></svg>