<?xml version="1.0" standalone="no"?><!DOCTYPE svg PUBLIC "-//W3C//DTD SVG 1.1//EN" "http://www.w3.org/Graphics/SVG/1.1/DTD/svg11.dtd"><svg t="1721130899430" class="icon" viewBox="0 0 1024 1024" version="1.1" xmlns="http://www.w3.org/2000/svg" p-id="4600" xmlns:xlink="http://www.w3.org/1999/xlink" width="128" height="128"><path d="M512 512m-414 0a414 414 0 1 0 828 0 414 414 0 1 0-828 0Z" fill="#F0C48A" p-id="4601"></path><path d="M1007 72.8c-3 0-6-1.2-8.2-3.4-61.2-61.2-161-61.2-222.2 0-4.6 4.6-12 4.6-16.6 0-4.6-4.6-4.6-12 0-16.6 70.4-70.4 185-70.4 255.4 0 4.6 4.6 4.6 12 0 16.6-2.4 2.4-5.4 3.4-8.4 3.4z" fill="#4C4372" p-id="4602"></path><path d="M969 110.8c-3 0-6-1.2-8.2-3.4-40.4-40.4-106-40.4-146.4 0-4.6 4.6-12 4.6-16.6 0-4.6-4.6-4.6-12 0-16.6 49.6-49.6 130-49.6 179.6 0 4.6 4.6 4.6 12 0 16.6-2.4 2.2-5.4 3.4-8.4 3.4z" fill="#4C4372" p-id="4603"></path><path d="M929.6 150.2c-3 0-6-1.2-8.2-3.4-18.6-18.6-48.8-18.6-67.4 0-4.6 4.6-12 4.6-16.6 0-4.6-4.6-4.6-12 0-16.6 27.8-27.8 72.8-27.8 100.6 0 4.6 4.6 4.6 12 0 16.6-2.4 2.4-5.4 3.4-8.4 3.4z" fill="#4C4372" p-id="4604"></path><path d="M887.6 180.6m-24.4 0a24.4 24.4 0 1 0 48.8 0 24.4 24.4 0 1 0-48.8 0Z" fill="#4C4372" p-id="4605"></path><path d="M546.6 11.8H327.8c-49.8 0-90.2 40.4-90.2 90.2v95.8h75.8V127.4c0-30 24.2-54.2 54.2-54.2h139.2c30 0 54.2 24.2 54.2 54.2v70.4h75.8V102c0-49.8-40.4-90.2-90.2-90.2z" fill="#FD919E" p-id="4606"></path><path d="M556.4 12.2v93.4c3 6.6 4.6 14 4.6 21.8v70.4h75.8V102c0-46.6-35.2-84.8-80.4-89.8z" fill="#E8677D" p-id="4607"></path><path d="M802.8 731.2H71.4c-30 0-54.4-24.4-54.4-54.4V252.2c0-30 24.4-54.4 54.4-54.4h731.4c30 0 54.4 24.4 54.4 54.4v424.6c0 30-24.4 54.4-54.4 54.4z" fill="#FD919E" p-id="4608"></path><path d="M749 731.2h44.4c35.2 0 63.8-28.6 63.8-63.8V254.4c0-35.2-28.6-63.8-63.8-63.8h-44.4v540.6z" fill="#E8677D" p-id="4609"></path><path d="M437.2 466.6m-199.6 0a199.6 199.6 0 1 0 399.2 0 199.6 199.6 0 1 0-399.2 0Z" fill="#FFFFFF" p-id="4610"></path><path d="M560.6 425.2h-82v-82h-83v82h-82v83h82v82h83v-82h82z" fill="#FD919E" p-id="4611"></path><path d="M802.8 742.8H71.4c-36.4 0-66.2-29.6-66.2-66.2V252.2C5.4 215.8 35 186 71.4 186h731.4c36.4 0 66.2 29.6 66.2 66.2v424.6c0 36.4-29.8 66-66.2 66zM71.4 209.6c-23.6 0-42.6 19.2-42.6 42.6v424.6c0 23.6 19.2 42.6 42.6 42.6h731.4c23.6 0 42.6-19.2 42.6-42.6V252.2c0-23.6-19.2-42.6-42.6-42.6H71.4z" fill="#4C4372" p-id="4612"></path><path d="M636.8 209.6h-75.8c-6.4 0-11.8-5.2-11.8-11.8V127.4c0-23.4-19-42.4-42.4-42.4h-139.2c-23.4 0-42.4 19-42.4 42.4v70.4c0 6.4-5.2 11.8-11.8 11.8h-75.8c-6.4 0-11.8-5.2-11.8-11.8V102c0-56.2 45.8-102 102-102h218.8c56.2 0 102 45.8 102 102v95.8c-0.2 6.4-5.4 11.8-11.8 11.8zM572.6 186h52.4V102c0-43.2-35.2-78.6-78.6-78.6H327.8c-43.2 0-78.6 35.2-78.6 78.6v84h52.4V127.4c0-36.4 29.6-66 66-66h139.2c36.4 0 66 29.6 66 66V186zM478.6 601.8h-83c-6.4 0-11.8-5.2-11.8-11.8v-70h-70.2c-6.4 0-11.8-5.2-11.8-11.8v-83c0-6.4 5.2-11.8 11.8-11.8h70.2v-70.2c0-6.4 5.2-11.8 11.8-11.8h83c6.4 0 11.8 5.2 11.8 11.8v70.2h70.2c6.4 0 11.8 5.2 11.8 11.8v83c0 6.4-5.2 11.8-11.8 11.8h-70.2v70.2c0 6.4-5.2 11.6-11.8 11.6z m-71.2-23.4h59.6v-70.2c0-6.4 5.2-11.8 11.8-11.8h70.2v-59.6h-70.2c-6.4 0-11.8-5.2-11.8-11.8v-70.2h-59.6v70.2c0 6.4-5.2 11.8-11.8 11.8h-70.2v59.6h70.2c6.4 0 11.8 5.2 11.8 11.8v70.2z" fill="#4C4372" p-id="4613"></path><path d="M437.2 678c-116.6 0-211.4-94.8-211.4-211.4s94.8-211.4 211.4-211.4c116.6 0 211.4 94.8 211.4 211.4S553.6 678 437.2 678z m0-399.2c-103.6 0-188 84.2-188 188s84.2 188 188 188 188-84.2 188-188-84.4-188-188-188z" fill="#4C4372" p-id="4614"></path><path d="M705.2 541.8v-59.4c0-22.6 18.4-41 41-41h208c22.6 0 41 18.4 41 41v489c0 22.6-18.4 41-41 41h-208c-22.6 0-41-18.4-41-41V541.8z" fill="#D3E6F8" p-id="4615"></path><path d="M705.2 521.8h291v379.8H705.2z" fill="#FFFFFF" p-id="4616"></path><path d="M939 525h56v-51.4c0-16.8-13.6-30.4-30.4-30.4h-25.8v81.8zM939 1012.2h14.4c23 0 41.8-18.6 41.8-41.8V898c0-2.8-2.4-5.2-5.2-5.2h-51v119.4z" fill="#7BABF1" p-id="4617"></path><path d="M939 525h56v368h-56z" fill="#D3E6F8" p-id="4618"></path><path d="M832.475928 968.71721a25 25 0 1 0 35.354722-35.355956 25 25 0 1 0-35.354722 35.355956Z" fill="#7BABF1" p-id="4619"></path><path d="M993.6 533.4H706.8c-6.4 0-11.8-5.2-11.8-11.8 0-6.4 5.2-11.8 11.8-11.8h286.6c6.4 0 11.8 5.2 11.8 11.8 0.2 6.6-5.2 11.8-11.6 11.8zM993.6 904.8H706.8c-6.4 0-11.8-5.2-11.8-11.8 0-6.4 5.2-11.8 11.8-11.8h286.6c6.4 0 11.8 5.2 11.8 11.8 0.2 6.6-5.2 11.8-11.6 11.8zM850.2 987.8c-20.2 0-36.8-16.6-36.8-36.8 0-20.2 16.6-36.8 36.8-36.8 20.2 0 36.8 16.6 36.8 36.8 0 20.4-16.4 36.8-36.8 36.8z m0-50a13.4 13.4 0 1 0 13.4 13.4c0-7.6-6-13.4-13.4-13.4z" fill="#4C4372" p-id="4620"></path><path d="M954.2 1024h-208c-29 0-52.6-23.6-52.6-52.6V482.4c0-29 23.6-52.6 52.6-52.6h208c29 0 52.6 23.6 52.6 52.6v489c0 29-23.6 52.6-52.6 52.6z m-208-570.8c-16.2 0-29.2 13.2-29.2 29.2v489c0 16.2 13.2 29.2 29.2 29.2h208c16.2 0 29.2-13.2 29.2-29.2V482.4c0-16.2-13.2-29.2-29.2-29.2h-208z" fill="#4C4372" p-id="4621"></path></svg>