<?xml version="1.0" standalone="no"?><!DOCTYPE svg PUBLIC "-//W3C//DTD SVG 1.1//EN" "http://www.w3.org/Graphics/SVG/1.1/DTD/svg11.dtd"><svg t="1721055356969" class="icon" viewBox="0 0 1024 1024" version="1.1" xmlns="http://www.w3.org/2000/svg" p-id="11429" xmlns:xlink="http://www.w3.org/1999/xlink" width="128" height="128"><path d="M512.00102 1017.644972c-278.546067 0-506.447766-227.901699-506.447766-506.447766S233.452912 4.7474 512.00102 4.7474 1018.448786 232.649098 1018.448786 511.197206 790.547088 1017.644972 512.00102 1017.644972z" fill="#F16051" p-id="11430"></path><path d="M486.676796 655.218659h31.65273v31.652731h-31.65273zM486.676796 728.018919h31.65273v31.65273h-31.65273zM486.676796 800.821219h31.65273v31.65273h-31.65273z" fill="#193651" p-id="11431"></path><path d="M608.542358 180.421583l-106.038177-151.933106-104.45503 151.933106v318.114531h210.493207z" fill="#2EA2DB" p-id="11432"></path><path d="M624.367703 514.361459H382.221765V175.674184L504.085287 1.583147l121.863522 174.091037-1.581106 338.687275z m-210.491167-31.65273h178.840477V185.171023l-90.210792-128.194068-90.210792 128.194068 1.581107 297.537706z" fill="#193651" p-id="11433"></path><path d="M461.354611 178.840477h82.297099v307.034545h-82.297099z" fill="#FFFFFF" p-id="11434"></path><path d="M606.959211 178.840477l-104.45503-150.352-104.45503 150.352" fill="#FDBF5E" p-id="11435"></path><path d="M594.298119 188.335276l-91.793938-131.360361-91.793938 131.360361-25.322185-17.408492L502.504181 1.583147l118.699269 169.343637z" fill="#193651" p-id="11436"></path><path d="M398.049151 572.91952c0 17.408492 14.244239 30.069584 30.069583 30.069584h150.352c17.408492 0 30.069584-14.244239 30.069584-30.069584v-74.385446H398.049151v74.385446z" fill="#E1E6E9" p-id="11437"></path><path d="M578.470734 618.816489h-150.352c-25.322184 0-45.896969-20.574785-45.896969-45.896969v-90.210791h242.145938v90.210791c0 25.322184-20.572745 45.896969-45.896969 45.896969z m-164.594198-104.45503v58.558061a14.185075 14.185075 0 0 0 14.244239 14.244239h150.351999a14.185075 14.185075 0 0 0 14.244239-14.244239v-58.558061h-178.840477zM543.65375 88.627645l-41.149569-60.139168-41.14957 60.139168z" fill="#193651" p-id="11438"></path><path d="M573.723334 102.871884h-142.438306L502.504181 0l71.219153 102.871884z m-82.297099-31.652731h22.157932l-11.077946-15.827385-11.079986 15.827385z" fill="#193651" p-id="11439"></path><path d="M741.483825 561.841575l-132.941467-63.305461v-208.910061l132.941467 144.021454z" fill="#FFFFFF" p-id="11440"></path><path d="M757.311211 587.163759l-164.596239-79.132846V250.05963l164.596239 178.838437v158.265692z m-132.943508-98.124484l101.288737 47.480115v-96.541337l-101.288737-109.20243v158.263652z" fill="#193651" p-id="11441"></path><path d="M265.105643 561.841575l132.943508-63.305461v-208.910061l-132.943508 144.021454z" fill="#FFFFFF" p-id="11442"></path><path d="M249.280298 587.163759V428.898067l164.596238-178.840477v257.971283l-164.596238 79.134886z m31.65273-147.185706v96.541337l101.288737-47.480115v-158.265692l-101.288737 109.20447z" fill="#193651" p-id="11443"></path><path d="M1002.621401 1023.975518v-75.966553c-9.496839-31.65273-37.983276-55.393808-72.8023-55.393808 0-56.974915-45.896969-104.45503-104.45503-104.45503-53.810662 0-98.124484 41.14957-102.871884 93.377085 0 0-28.488477-25.322184-75.966553-18.991639-36.40013 4.7474-66.471754 25.322184-74.385446 58.558062h-1.583147c-23.739038 0-45.896969 11.077946-58.558061 28.488477-14.244239-17.408492-34.819023-28.488477-58.558061-28.488477h-1.583147c-7.913693-33.235877-37.983276-53.810662-74.385446-58.558062-47.480116-6.330546-75.966553 18.991638-75.966553 18.991639-4.7474-52.227515-49.061222-93.377085-102.871884-93.377085-56.974915 0-104.45503 45.896969-104.45503 104.45503-31.65273 0-56.974915 18.991638-69.636007 44.313823v87.046538" fill="#E1E6E9" p-id="11444"></path><path d="M1018.448786 1023.975518h-31.65273V951.173218c-7.913693-25.322184-31.65273-42.730676-56.974915-42.730676H913.993756v-15.827385c0-49.061222-39.566423-88.627645-88.627645-88.627645-45.896969 0-82.297099 33.235877-87.046539 79.132846l-1.583146 14.244239h-18.991638l-4.7474-3.166293c-6.330546-4.7474-28.488477-20.574785-64.888607-15.827386-31.65273 3.166293-53.810662 22.157931-60.141208 45.89697l-3.166293 12.661092h-15.827385c-17.408492 0-34.819023 7.913693-45.896969 23.739037l-12.661093 15.827386-12.661092-15.827386c-11.077946-14.244239-28.488477-23.739038-47.480115-23.739037h-14.244239l-3.166293-12.661092c-6.330546-25.322184-28.488477-42.730676-60.141208-45.89697-34.819023-4.7474-58.558061 11.077946-64.888607 15.827386l-4.7474 3.166293h-20.574785l-1.583146-14.244239c-4.7474-44.313823-42.730676-79.132846-87.046539-79.132846-49.061222 0-88.627645 39.566423-88.627645 88.627645v15.827385H89.431459c-20.574785 0-41.14957 12.661092-52.227515 33.235877v82.297099H5.551214v-90.210791l1.583146-3.166293c12.661092-28.488477 39.566423-47.480116 68.054901-52.227516 7.913693-58.558061 58.558061-104.45503 118.699269-104.45503 53.810662 0 99.707631 34.819023 113.951869 83.880246 15.827385-7.913693 37.983276-14.244239 68.054901-11.077946 39.566423 4.7474 71.219153 26.905331 83.880245 58.558061 18.991638 1.583147 36.40013 9.496839 49.061222 22.157932 14.244239-12.661092 31.65273-18.991638 49.061222-22.157932 12.661092-31.65273 44.313823-53.810662 83.880246-58.558061 28.488477-3.166293 52.227515 3.166293 68.0549 11.077946 15.827385-49.061222 61.724354-83.880246 113.95187-83.880246 61.724354 0 112.368723 45.896969 118.699269 104.45503 34.819023 6.330546 63.305461 31.65273 72.8023 66.471754v79.132846h3.162212zM866.51364 557.094175h31.652731v31.65273h-31.652731zM866.51364 299.120852h31.652731V511.197206h-31.652731zM125.833629 557.094175h31.652731v31.65273H125.833629zM125.833629 299.120852h31.652731V511.197206H125.833629z" fill="#193651" p-id="11445"></path></svg>