<?xml version="1.0" standalone="no"?><!DOCTYPE svg PUBLIC "-//W3C//DTD SVG 1.1//EN" "http://www.w3.org/Graphics/SVG/1.1/DTD/svg11.dtd"><svg t="1721054696731" class="icon" viewBox="0 0 1024 1024" version="1.1" xmlns="http://www.w3.org/2000/svg" p-id="9753" xmlns:xlink="http://www.w3.org/1999/xlink" width="128" height="128"><path d="M365.827105 393.7839m-365.827105 0a365.827105 365.827105 0 1 0 731.65421 0 365.827105 365.827105 0 1 0-731.65421 0Z" fill="#FDBF5E" p-id="9754"></path><path d="M316.305522 558.326609h99.045225v143.774863H316.305522z" fill="#FFFFFF" p-id="9755"></path><path d="M415.350747 716.47937H316.305522a14.318179 14.318179 0 0 1-14.377898-14.377898v-143.774863a14.318179 14.318179 0 0 1 14.377898-14.377898h99.045225a14.318179 14.318179 0 0 1 14.377899 14.377898v143.774863c1.598002 7.98795-6.389948 14.377898-14.377899 14.377898z m-84.667327-30.351739h70.289429v-113.423124h-70.289429v113.423124z" fill="#193651" p-id="9756"></path><path d="M290.745729 702.101472v202.882398c0 41.535693 33.547743 76.679378 76.679378 76.679377 41.535693 0 76.679378-33.547743 76.679377-76.679377v-202.882398h-153.358755z" fill="#E1E6E9" p-id="9757"></path><path d="M442.508542 686.127631h-151.762813a14.318179 14.318179 0 0 0-14.377898 14.377898v202.882398c0 49.521583 41.535693 91.057276 91.057276 91.057276s91.057276-41.535693 91.057275-91.057276v-201.284396c-1.595943-7.98795-7.985891-15.9759-15.97384-15.9759z m-15.9759 218.858298c0 33.547743-27.157794 60.705537-60.705537 60.705537s-60.705537-27.157794-60.705537-60.705537v-188.5045h123.007016v188.5045h-1.595942z" fill="#193651" p-id="9758"></path><path d="M351.451266 754.819059h30.351739v30.351739h-30.351739zM351.451266 826.708549h30.351739v30.351739h-30.351739zM351.451266 896.997979h30.351739v30.351739h-30.351739z" fill="#193651" p-id="9759"></path><path d="M365.827105 393.7839m-236.43014 0a236.43014 236.43014 0 1 0 472.86028 0 236.43014 236.43014 0 1 0-472.86028 0Z" fill="#FFFFFF" p-id="9760"></path><path d="M365.827105 644.591939c-138.982916 0-250.808038-111.825122-250.808039-250.808039S226.846248 142.975862 365.827105 142.975862s250.808038 111.825122 250.808038 250.808038-111.825122 250.808038-250.808038 250.808039z m0-471.262279c-121.411074 0-222.052242 99.045226-222.052242 222.052242 0 121.411074 99.045226 222.052242 222.052242 222.052242 121.411074 0 222.052242-99.045226 222.052242-222.052242S488.836181 173.32966 365.827105 173.32966z" fill="#193651" p-id="9761"></path><path d="M365.827105 580.692457C263.587935 580.692457 180.51655 497.623132 180.51655 395.381902s83.069326-185.310555 185.310555-185.310555 185.310555 83.069326 185.310555 185.310555c1.598002 102.23917-83.069326 185.310555-185.310555 185.310555z" fill="#2EA2DB" p-id="9762"></path><path d="M669.35273 540.754767h338.67137v439.312538H669.35273z" fill="#FFFFFF" p-id="9763"></path><path d="M1008.0241 996.043205H669.35273a14.318179 14.318179 0 0 1-14.377898-14.377898V540.754767a14.318179 14.318179 0 0 1 14.377898-14.377899h338.67137a14.318179 14.318179 0 0 1 14.377898 14.377899v439.312538c0 9.585952-6.389948 15.9759-14.377898 15.9759z m-324.293472-30.353798h308.317572v-410.558802H683.730628v410.558802z" fill="#193651" p-id="9764"></path><path d="M723.668319 595.070355h228.44219v83.069326H723.668319z" fill="#E1E6E9" p-id="9765"></path><path d="M723.668319 842.68239h84.667328v84.667328h-84.667328z" fill="#2EA2DB" p-id="9766"></path><path d="M869.041184 842.68239h84.667327v84.667328h-84.667327z" fill="#F16051" p-id="9767"></path><path d="M723.668319 716.47937h84.667328v84.667328h-84.667328zM869.041184 716.47937h84.667327v84.667328h-84.667327z" fill="#2EA2DB" p-id="9768"></path><path d="M757.216062 622.22815h30.351738v30.351739h-30.351738zM824.311547 622.22815h30.351738v30.351739h-30.351738z" fill="#193651" p-id="9769"></path><path d="M889.80903 622.22815h30.351739v30.351739h-30.351739zM78.277379 561.522613c-6.389948-6.389948-6.389948-15.9759 0-20.767846l228.442191-228.442191c6.389948-6.389948 15.9759-6.389948 20.767846 0l94.25328 94.25328L682.132627 146.171865c6.389948-6.389948 15.9759-6.389948 20.767846 0l99.045226 99.045226 194.894447-194.894448c6.389948-6.389948 15.9759-6.389948 20.767847 0 6.389948 6.389948 6.389948 15.9759 0 20.767847L811.53165 277.166832c-6.389948 6.389948-15.9759 6.389948-20.767846 0l-99.045226-99.045226-260.391931 260.391931c-6.389948 6.389948-15.9759 6.389948-20.767846 0l-94.253279-94.253279L99.045226 561.522613c-6.389948 6.389948-15.9759 6.389948-20.767847 0z" fill="#193651" p-id="9770"></path><path d="M1008.0241 168.535654a14.318179 14.318179 0 0 1-14.377898-14.377898V75.880377h-76.679378c-7.98795 0-14.377898-6.389948-14.377898-14.377898s6.389948-14.377898 14.377898-14.377899h92.655278a14.318179 14.318179 0 0 1 14.377898 14.377899V154.157756c-1.598002 7.98795-7.98795 14.377898-15.9759 14.377898z" fill="#193651" p-id="9771"></path></svg>