<?xml version="1.0" standalone="no"?><!DOCTYPE svg PUBLIC "-//W3C//DTD SVG 1.1//EN" "http://www.w3.org/Graphics/SVG/1.1/DTD/svg11.dtd"><svg t="1720921311948" class="icon" viewBox="0 0 1024 1024" version="1.1" xmlns="http://www.w3.org/2000/svg" p-id="3145" xmlns:xlink="http://www.w3.org/1999/xlink" width="128" height="128"><path d="M115.18 870a14 14 0 0 1-12.2-9.18c-4.54-12.58-10.1-32.24-8.28-50.52a110.32 110.32 0 0 1 27.52-61.88c8-9.02 23.06-18 52.76-35.52 33.84-20 37.44-20 55.06-32 12.54-8.58 28.68-19.64 45.88-37.82 30.14-31.88 42.22-63.18 44.72-69.9 6.4-17.18 13.12-36 9.18-59.58-1.88-11.26-4.68-28-18.36-37.82-18.7-13.38-45.5-4.92-59.64 3.44s-21.66 20.52-28.68 32A133.42 133.42 0 0 0 208 548a13.72 13.72 0 0 1-11.7 10.3l-109.56 13.18-15.5-13.48-1.62-100.32a13.66 13.66 0 0 1 8.24-12.8 178.12 178.12 0 0 0 48.96-31.04c46.34-41.48 57.28-96 60.2-118.76a13.66 13.66 0 0 1 4.5-8.46l72.32-64.12a13.74 13.74 0 0 0 4.58-11.5l-7.24-82a13.74 13.74 0 0 1 17-14.56 179.34 179.34 0 0 1 32.14 11.38c40.34 18.8 57.02 62.44 68.46 79.4 206.18 161.74 151.22 235.54 185.58 338.3C609.4 678.28 624 722.82 610 861.14a13.78 13.78 0 0 1-13.24 12.34c-164.88 5.42-308.52 8.8-481.58-3.48z" fill="#686F77" p-id="3146"></path><path d="M58 837.62m36.2 0l575.6 0q36.2 0 36.2 36.2l0-0.02q0 36.2-36.2 36.2l-575.6 0q-36.2 0-36.2-36.2l0 0.02q0-36.2 36.2-36.2Z" fill="#495057" p-id="3147"></path><path d="M372 630.78a281.98 281.22 0 1 0 563.96 0 281.98 281.22 0 1 0-563.96 0Z" fill="#FF6B6B" p-id="3148"></path><path d="M428.38 630.78a225.6 224.96 0 1 0 451.2 0 225.6 224.96 0 1 0-451.2 0Z" fill="#EDF2FF" p-id="3149"></path><path d="M484.78 630.78a169.2 168.72 0 1 0 338.4 0 169.2 168.72 0 1 0-338.4 0Z" fill="#5C7CFA" p-id="3150"></path><path d="M541.18 630.78a112.8 112.48 0 1 0 225.6 0 112.8 112.48 0 1 0-225.6 0Z" fill="#EDF2FF" p-id="3151"></path><path d="M597.58 630.78a56.4 56.24 0 1 0 112.8 0 56.4 56.24 0 1 0-112.8 0Z" fill="#FF6B6B" p-id="3152"></path><path d="M902.72 302l-77.72 77.52a6.76 6.76 0 0 0-2 4.14l-6.34 66.22a6.78 6.78 0 0 0 11.56 5.44L906 377.8a6.76 6.76 0 0 0 2-4.14l6.34-66.22a6.78 6.78 0 0 0-11.62-5.44z" fill="#FCC419" p-id="3153"></path><path d="M828.26 455.32L906 377.8a6.8 6.8 0 0 1 4.16-2l66.4-6.32a6.76 6.76 0 0 1 5.44 11.52l-77.74 77.52a6.8 6.8 0 0 1-4.16 2l-66.4 6.32a6.76 6.76 0 0 1-5.44-11.52z" fill="#FAB005" p-id="3154"></path><path d="M654 645.32a14.54 14.54 0 0 1-10.34-24.78l253.2-254.18a14.56 14.56 0 0 1 20.68 20.48L664.32 641.02a14.56 14.56 0 0 1-10.32 4.3z" fill="#495057" p-id="3155"></path></svg>