<?xml version="1.0" standalone="no"?><!DOCTYPE svg PUBLIC "-//W3C//DTD SVG 1.1//EN" "http://www.w3.org/Graphics/SVG/1.1/DTD/svg11.dtd"><svg t="1721054457973" class="icon" viewBox="0 0 1024 1024" version="1.1" xmlns="http://www.w3.org/2000/svg" p-id="9409" xmlns:xlink="http://www.w3.org/1999/xlink" width="128" height="128"><path d="M512 512m-512 0a512 512 0 1 0 1024 0 512 512 0 1 0-1024 0Z" fill="#E1E6E9" p-id="9410"></path><path d="M240.674159 219.020395l-22.696522 22.696521-22.69859-22.696521 22.696521-22.696522zM828.640263 805.234088l-22.696521 22.69859-22.696521-22.696521 22.696521-22.69859zM827.806471 217.959017l-22.696521 22.69859-22.700659-22.696521 22.69859-22.69859z" fill="#193651" p-id="9411"></path><path d="M241.667261 805.912708l-22.704797 22.696521-22.696521-22.704797 22.704797-22.696521zM879.547091 470.269022h-86.670918c-9.631022 0-16.051013-6.419991-16.051012-16.051013 0-9.631022 6.419991-16.051013 16.051012-16.051013h75.436451l32.099956-64.199914c3.21103-4.814476 8.025506-9.631022 14.445498-9.631021h72.22542c9.631022 0 16.051013 6.419991 16.051013 16.051013 0 9.631022-6.419991 16.051013-16.051013 16.051013h-62.596467l-32.099957 64.199913c0 6.419991-6.419991 9.631022-12.839983 9.631022zM990.292459 659.659801h-72.22542c-6.419991 0-11.234468-3.21103-14.445498-9.631021l-32.099956-64.199914h-75.43645c-9.631022 0-16.051013-6.419991-16.051013-16.051013 0-9.631022 6.419991-16.051013 16.051013-16.051013h86.670917c6.419991 0 11.234468 3.21103 14.445498 9.631022l32.099957 64.199913h62.596467c9.631022 0 16.051013 6.419991 16.051013 16.051013-1.605515 8.027575-9.631022 16.051013-17.656528 16.051013zM990.292459 528.048944H794.481688c-9.631022 0-16.051013-6.419991-16.051012-16.051013 0-9.631022 6.419991-16.051013 16.051012-16.051013h195.810771c9.631022 0 16.051013 6.419991 16.051013 16.051013 0 9.631022-8.025506 16.051013-16.051013 16.051013zM107.536407 659.659801H33.705472c-9.631022 0-16.051013-6.419991-16.051013-16.051013s6.419991-16.051013 16.051013-16.051013h62.596467l32.099957-64.199913c3.21103-4.814476 8.025506-9.631022 14.445498-9.631022h86.670918c9.631022 0 16.051013 6.419991 16.051012 16.051013 0 9.631022-6.419991 16.051013-16.051012 16.051013H154.081861l-32.099956 64.199914c-3.21103 6.42206-9.631022 9.631022-14.445498 9.631021zM229.516243 470.269022H142.845325c-6.419991 0-11.234468-3.21103-14.445498-9.631022l-32.099957-64.199913H33.705472c-9.631022 0-16.051013-6.419991-16.051013-16.051013 0-9.631022 6.419991-16.051013 16.051013-16.051013H105.930892c6.419991 0 11.234468 3.21103 14.445498 9.631021l32.099956 64.199914h75.43645c9.631022 0 16.051013 6.419991 16.051013 16.051013 1.603446 9.631022-4.816545 16.051013-14.447566 16.051013zM229.516243 528.048944H33.705472c-9.631022 0-16.051013-6.419991-16.051013-16.051013 0-9.631022 6.419991-16.051013 16.051013-16.051013h195.810771c9.631022 0 16.051013 6.419991 16.051012 16.051013 0 9.631022-6.419991 16.051013-16.051012 16.051013zM643.610857 1006.343472c-9.631022 0-16.051013-6.419991-16.051013-16.051013v-62.596467l-64.199913-32.099957c-4.814476-3.21103-9.631022-8.025506-9.631022-14.445498V794.481688c0-9.631022 6.419991-16.051013 16.051013-16.051012 9.631022 0 16.051013 6.419991 16.051013 16.051012v75.436451l64.199914 32.099956c4.814476 3.21103 9.631022 8.025506 9.631021 14.445498v72.22542c-0.002069 9.628953-8.025506 17.654459-16.051013 17.654459zM380.389143 1006.343472c-9.631022 0-16.051013-6.419991-16.051013-16.051013v-72.22542c0-6.419991 3.21103-11.234468 9.631021-14.445498l64.199914-32.099956v-75.43645c0-9.631022 6.419991-16.051013 16.051013-16.051013 9.631022 0 16.051013 6.419991 16.051013 16.051013v86.670917c0 6.419991-3.21103 11.234468-9.631022 14.445498l-64.199913 32.099957v62.596467c-0.002069 6.419991-6.42206 14.445498-16.051013 14.445498zM512 1006.343472c-9.631022 0-16.051013-6.419991-16.051013-16.051013V794.481688c0-9.631022 6.419991-16.051013 16.051013-16.051012 9.631022 0 16.051013 6.419991 16.051013 16.051012v195.810771c-0.002069 8.025506-6.42206 16.051013-16.051013 16.051013zM454.218009 245.567255c-9.631022 0-16.051013-6.419991-16.051013-16.051012v-75.434382l-64.199914-32.099956c-4.814476-3.21103-9.631022-8.025506-9.631021-14.445498V33.705472c0-9.631022 6.419991-16.051013 16.051013-16.051013 9.631022 0 16.051013 6.419991 16.051013 16.051013v62.596467l64.199913 32.099957c4.814476 3.21103 9.631022 8.025506 9.631022 14.445498v86.670918c0 9.628953-6.419991 16.048944-16.051013 16.048943zM569.779922 245.567255c-9.631022 0-16.051013-6.419991-16.051013-16.051012V142.845325c0-6.419991 3.21103-11.234468 9.631022-14.445498l64.199913-32.099957V33.705472c0-9.631022 6.419991-16.051013 16.051013-16.051013s16.051013 6.419991 16.051013 16.051013V105.930892c0 6.419991-3.21103 11.234468-9.631021 14.445498l-64.199914 32.099956v75.43645c0 11.234468-8.025506 17.654459-16.051013 17.654459zM512 245.567255c-9.631022 0-16.051013-6.419991-16.051013-16.051012V33.705472c0-9.631022 6.419991-16.051013 16.051013-16.051013 9.631022 0 16.051013 6.419991 16.051013 16.051013v195.810771c-0.002069 9.631022-6.42206 16.051013-16.051013 16.051012z" fill="#193651" p-id="9412"></path><path d="M794.481688 569.779922v-115.561913h-64.199913c-4.814476-19.259974-12.839983-38.519948-22.471004-56.176476l44.939939-44.93994-81.856441-81.856441-44.93994 44.939939c-17.654459-9.631022-36.914433-17.654459-56.176476-22.471004v-64.199913h-115.561913v64.199913c-19.259974 4.814476-38.519948 12.839983-56.176476 22.471004l-44.93994-44.939939-81.856441 81.856441 44.939939 44.93994c-9.631022 17.654459-17.654459 36.914433-22.471004 56.176476h-64.199913v115.561913h64.199913c4.814476 19.259974 12.839983 38.519948 22.471004 56.176476l-44.939939 44.93994 81.856441 81.856441 44.93994-44.939939c17.654459 9.631022 36.914433 17.654459 56.176476 22.471004V794.481688h115.561913v-64.199913c19.259974-4.814476 38.519948-12.839983 56.176476-22.471004l44.93994 44.939939 81.856441-81.856441-44.939939-44.93994c9.631022-17.654459 17.654459-36.914433 22.471004-56.176476l64.199913 0.002069z" fill="#FFFFFF" p-id="9413"></path><path d="M794.481688 438.169065h-51.35993c-4.814476-12.839983-9.631022-25.679965-16.051013-36.914433l36.914433-36.914433c6.419991-6.419991 6.419991-16.051013 0-22.471004l-81.856442-81.856442c-3.21103-3.21103-6.419991-4.814476-11.234467-4.814476s-8.025506 1.605515-11.234468 4.814476l-36.914433 36.914433c-11.234468-6.419991-24.07445-11.234468-36.914433-16.051013v-51.35993c0-9.631022-6.419991-16.051013-16.051013-16.051013h-115.561913c-9.631022 0-16.051013 6.419991-16.051013 16.051013v51.35993c-12.839983 4.814476-25.679965 9.631022-36.914433 16.051013l-36.914433-36.914433c-6.419991-6.419991-16.051013-6.419991-22.471004 0l-81.856442 81.856442c-3.21103 3.21103-4.814476 6.419991-4.814476 11.234467 0 4.814476 1.605515 8.025506 4.814476 11.234468l36.914433 36.914433c-6.419991 11.234468-11.234468 24.07445-16.051013 36.914433h-51.35993c-9.631022 0-16.051013 6.419991-16.051013 16.051013v115.561913c0 9.631022 6.419991 16.051013 16.051013 16.051013h51.35993c4.814476 12.839983 9.631022 25.679965 16.051013 36.914433l-36.914433 36.914433c-3.21103 3.21103-4.814476 6.419991-4.814476 11.234468s1.605515 8.025506 4.814476 11.234467l81.856442 81.856442c6.419991 6.419991 16.051013 6.419991 22.471004 0l36.914433-36.914433c11.234468 6.419991 24.07445 11.234468 36.914433 16.051013V794.481688c0 9.631022 6.419991 16.051013 16.051013 16.051013h115.561913c9.631022 0 16.051013-6.419991 16.051013-16.051013v-51.35993c12.839983-4.814476 25.679965-9.631022 36.914433-16.051013l36.914433 36.914433c6.419991 6.419991 16.051013 6.419991 22.471004 0l81.856442-81.856442c3.21103-3.21103 4.814476-6.419991 4.814476-11.234467s-1.605515-8.025506-4.814476-11.234468l-36.914433-36.914433c6.419991-11.234468 11.234468-24.07445 16.051013-36.914433H794.481688c9.631022 0 16.051013-6.419991 16.051013-16.051013v-115.561913c0-8.023437-8.025506-16.048944-16.051013-16.048944z m-16.051012 115.559844H730.281775c-8.025506 0-14.445498 4.814476-16.051013 11.234468-4.814476 17.654459-12.839983 35.310987-20.865489 52.965446-3.21103 6.419991-3.21103 14.445498 3.21103 19.259974l33.705472 33.705472-59.385437 59.385437-33.705472-33.705472c-4.814476-4.814476-12.839983-6.419991-19.259974-3.21103-16.051013 9.631022-33.705472 16.051013-52.965446 20.865489-6.419991 1.605515-11.234468 8.025506-11.234468 16.051013v48.15097h-83.459887V730.281775c0-8.025506-4.814476-14.445498-11.234468-16.051013-17.654459-4.814476-35.310987-12.839983-52.965446-20.865489-6.419991-3.21103-14.445498-3.21103-19.259974 3.21103l-33.705472 33.705472-59.385437-59.385437 33.705472-33.705472c4.814476-4.814476 6.419991-12.839983 3.21103-19.259974-9.631022-16.051013-16.051013-33.705472-20.865489-52.965446-1.605515-6.419991-8.025506-11.234468-16.051013-11.234468h-48.15097v-83.459887h48.15097c8.025506 0 14.445498-4.814476 16.051013-11.234468 4.814476-17.654459 12.839983-35.310987 20.865489-52.965446 3.21103-6.419991 3.21103-14.445498-3.21103-19.259974l-33.705472-33.705472 59.385437-59.385437 33.705472 33.705472c4.814476 4.814476 12.839983 6.419991 19.259974 3.21103 16.051013-9.631022 33.705472-16.051013 52.965446-20.865489 6.419991-1.605515 11.234468-8.025506 11.234468-16.051013v-48.15097h83.459887v48.15097c0 8.025506 4.814476 14.445498 11.234468 16.051013 17.654459 4.814476 35.310987 12.839983 52.965446 20.865489 6.419991 3.21103 14.445498 3.21103 19.259974-3.21103l33.705472-33.705472 59.385437 59.385437-33.705472 33.705472c-4.814476 4.814476-6.419991 12.839983-3.21103 19.259974 9.631022 16.051013 16.051013 33.705472 20.865489 52.965446 1.605515 6.419991 8.025506 11.234468 16.051013 11.234468h48.15097v83.457818z" fill="#193651" p-id="9414"></path><path d="M512 512m-158.896338 0a158.896338 158.896338 0 1 0 317.792676 0 158.896338 158.896338 0 1 0-317.792676 0Z" fill="#F16051" p-id="9415"></path><path d="M512 512m-80.250926 0a80.250926 80.250926 0 1 0 160.501852 0 80.250926 80.250926 0 1 0-160.501852 0Z" fill="#FFFFFF" p-id="9416"></path><path d="M512 608.29987c-52.965446 0-96.29987-43.334424-96.29987-96.29987s43.334424-96.29987 96.29987-96.29987 96.29987 43.334424 96.29987 96.29987-43.334424 96.29987-96.29987 96.29987z m0-160.501852c-35.310987 0-64.199914 28.890996-64.199914 64.199913s28.890996 64.199914 64.199914 64.199914 64.199914-28.890996 64.199914-64.199914-28.890996-64.199914-64.199914-64.199913z" fill="#193651" p-id="9417"></path></svg>