<?xml version="1.0" standalone="no"?><!DOCTYPE svg PUBLIC "-//W3C//DTD SVG 1.1//EN" "http://www.w3.org/Graphics/SVG/1.1/DTD/svg11.dtd"><svg t="1721044011788" class="icon" viewBox="0 0 1024 1024" version="1.1" xmlns="http://www.w3.org/2000/svg" p-id="2607" xmlns:xlink="http://www.w3.org/1999/xlink" width="128" height="128"><path d="M1024 156.514L0 153.822l188.52 187.374-49.272 338.52 210.626-80.504 170.57 270.966L1024 156.514zM264.49 419.822L139.248 679.716l103.034-324.986L1024 156.514 264.49 419.822z" fill="#85D3FD" p-id="2608"></path><path d="M1024 156.514L246 418.116l-106.752 261.6 210.626-80.504 170.57 270.966L1024 156.514z" fill="#22B8F9" p-id="2609"></path><path d="M246 418.116l-106.752 261.6L188.52 341.194 1024 156.514z" fill="#0082FF" p-id="2610"></path><path d="M349.874 599.212L246 418.116l-106.752 261.6z" fill="#00317E" p-id="2611"></path><path d="M520.666 331.01v538.854L1024 156.514z" fill="#85D3FD" p-id="2612"></path><path d="M520.666 284.142L1024 156.514l-503.334-1.324z" fill="#22B8F9" p-id="2613"></path><path d="M520.666 325.76l-0.222 544.418L1024 156.514z" fill="#0082FF" p-id="2614"></path><path d="M520.666 267.774v57.986L1024 156.514z" fill="#00317E" p-id="2615"></path><path d="M766.79 340.76c-119.596 0-216.894 97.298-216.894 216.896 0 119.596 97.298 216.894 216.894 216.894 119.598 0 216.896-97.298 216.896-216.894 0-119.598-97.3-216.896-216.896-216.896z" fill="#FFDA2D" p-id="2616"></path><path d="M766.79 340.76v433.79c119.598 0 216.896-97.298 216.896-216.894 0-119.598-97.3-216.896-216.896-216.896z" fill="#FDBF00" p-id="2617"></path><path d="M804.27 472.81v173.226h-58.402v-129.178h-29.696v-44.048h88.098z" fill="#FC1D5A" p-id="2618"></path><path d="M766.79 472.81h37.48v173.226h-37.48z" fill="#DD0057" p-id="2619"></path></svg>