<?xml version="1.0" standalone="no"?><!DOCTYPE svg PUBLIC "-//W3C//DTD SVG 1.1//EN" "http://www.w3.org/Graphics/SVG/1.1/DTD/svg11.dtd"><svg t="1721130456662" class="icon" viewBox="0 0 1024 1024" version="1.1" xmlns="http://www.w3.org/2000/svg" p-id="3694" xmlns:xlink="http://www.w3.org/1999/xlink" width="128" height="128"><path d="M512 512m-414 0a414 414 0 1 0 828 0 414 414 0 1 0-828 0Z" fill="#F0C48A" p-id="3695"></path><path d="M700.2 376.2c-8.6-33.4-38.6-56.8-73.2-56.8h-230c-34.4 0-64.6 23.4-73.2 56.8l-135.2 528L512 870.8l323.4 33.6-135.2-528.2z" fill="#FD919E" p-id="3696"></path><path d="M636.6 320l143 578.4 55.8 5.8-146.6-553z" fill="#E8677D" p-id="3697"></path><path d="M835.4 916h-1.2L512 882.6 189.8 916c-3.8 0.4-7.6-1.2-10.2-4-2.6-3-3.4-6.8-2.4-10.6l135.2-528.2c9.8-38.6 44.6-65.6 84.6-65.6h230.2c40 0 74.6 27 84.6 65.6l135.2 528.2c1 3.8 0 7.8-2.4 10.6-2.4 2.6-5.8 4-9.2 4zM397 331.2c-29.2 0-54.4 19.8-61.8 48l-131 511.8 306.6-31.8h2.4l306.6 31.8-131-511.8c-7.2-28.2-32.6-48-61.8-48h-230z" fill="#4C4372" p-id="3698"></path><path d="M471.4 273.8h81v129.6h-81z" fill="#FFFFFF" p-id="3699"></path><path d="M519.6 319.2h33v84.2h-33z" fill="#D3E6F8" p-id="3700"></path><path d="M552.6 415.2h-81c-6.6 0-11.8-5.2-11.8-11.8v-129.6c0-6.6 5.2-11.8 11.8-11.8h81c6.6 0 11.8 5.2 11.8 11.8v129.6c0 6.6-5.4 11.8-11.8 11.8z m-69.4-23.6h57.4v-106h-57.4v106z" fill="#4C4372" p-id="3701"></path><path d="M396.2 607.2v353.6c0 32 26 57.8 57.8 57.8 32 0 57.8-26 57.8-57.8v-346l-115.6-7.6z" fill="#D3E6F8" p-id="3702"></path><path d="M464.6 1010.2c26.2 0 47.4-21.2 47.4-47.4V733.8c-26.2 0-47.4 21.2-47.4 47.4v229z" fill="#A4CFF2" p-id="3703"></path><path d="M493.8 607.2l17.8 353.6c0 32 26 57.8 57.8 57.8 32 0 57.8-26 57.8-57.8v-346l-133.4-7.6z" fill="#D3E6F8" p-id="3704"></path><path d="M580.4 1012.2c26.2 0 47.4-21.2 47.4-47.4V667.4h-47.4v344.8z" fill="#A4CFF2" p-id="3705"></path><path d="M454.2 1024c-38.4 0-69.6-31.2-69.6-69.6V663.2c0-6.6 5.2-11.8 11.8-11.8H512c6.6 0 11.8 5.2 11.8 11.8 0 6.6-5.2 11.8-11.8 11.8h-104v279.2c0 25.4 20.6 46 46.2 46 25.4 0 46.2-20.6 46.2-46 0-6.6 5.2-11.8 11.8-11.8s11.8 5.2 11.8 11.8c-0.2 38.6-31.4 69.8-69.8 69.8z" fill="#4C4372" p-id="3706"></path><path d="M569.8 1024c-38.4 0-69.6-31.2-69.6-69.6V733.8c0-6.6 5.2-11.8 11.8-11.8s11.8 5.2 11.8 11.8v220.4c0 25.4 20.6 46 46.2 46s46.2-20.6 46.2-46V675h-104c-6.6 0-11.8-5.2-11.8-11.8 0-6.6 5.2-11.8 11.8-11.8H628c6.6 0 11.8 5.2 11.8 11.8v291c-0.2 38.6-31.4 69.8-70 69.8z" fill="#4C4372" p-id="3707"></path><path d="M396.2 372.4h231.6v290.8H396.2z" fill="#D3E6F8" p-id="3708"></path><path d="M580.4 372.4h47.4v290.8h-47.4z" fill="#A4CFF2" p-id="3709"></path><path d="M670 672c23.2 0 42.2-18.8 42.2-42.2V423.6c0-28.2-22.8-51-51-51H628V630c-0.2 23 18.6 42 42 42z" fill="#FFFFFF" p-id="3710"></path><path d="M627.8 675H396.2c-6.6 0-11.8-5.2-11.8-11.8V372.4c0-6.6 5.2-11.8 11.8-11.8h231.6c6.6 0 11.8 5.2 11.8 11.8v290.8c0 6.6-5.2 11.8-11.8 11.8zM408 651.6h208V384.2H408v267.4z" fill="#4C4372" p-id="3711"></path><path d="M543.8 426.8L454.4 516h44.8l-34.2 95.8 104.6-92.6h-48.2z" fill="#FD919E" p-id="3712"></path><path d="M465 623.6c-2.2 0-4.6-0.6-6.6-2-4.4-3-6.4-8.6-4.6-13.8l28.6-80h-28c-4.8 0-9-2.8-11-7.2-1.8-4.4-0.8-9.4 2.6-12.8l89.2-89.2c3.8-3.8 9.6-4.6 14.2-2 4.6 2.6 7 8 5.6 13l-18.8 78h33.2c5 0 9.2 3 11 7.6 1.8 4.6 0.4 9.8-3.2 13l-104.6 92.6c-2 1.8-4.8 2.8-7.6 2.8z m44.8-102.2l-18.2 51.2 46.8-41.4h-17c-3.6 0-7-1.6-9.2-4.6-1.4-1.6-2.2-3.4-2.4-5.2z m-26.8-17.2h16.2c3.8 0 7.4 1.8 9.6 5 0.8 1.2 1.6 2.6 1.8 4.2l11.8-48.6-39.4 39.4z" fill="#4C4372" p-id="3713"></path><path d="M487.666721 317.337499a115.8 115.8 0 1 0 48.867753-226.385739 115.8 115.8 0 1 0-48.867753 226.385739Z" fill="#A4CFF2" p-id="3714"></path><path d="M512 88.4c-64 0-115.8 51.8-115.8 115.8 0 31.4 12.6 60 33 80.8 16.8 9.4 36 14.8 56.6 14.8 64 0 115.8-51.8 115.8-115.8 0-31.4-12.6-60-33-80.8-16.8-9.6-36-14.8-56.6-14.8z" fill="#D3E6F8" p-id="3715"></path><path d="M512 331.8c-70.4 0-127.6-57.2-127.6-127.6s57.2-127.6 127.6-127.6 127.6 57.2 127.6 127.6-57.2 127.6-127.6 127.6z m0-231.6c-57.4 0-104 46.6-104 104s46.6 104 104 104 104-46.6 104-104-46.6-104-104-104zM512 66.8c-6.6 0-11.8-5.2-11.8-11.8V11.8c0-6.6 5.2-11.8 11.8-11.8s11.8 5.2 11.8 11.8v43.2c0 6.6-5.2 11.8-11.8 11.8zM617.4 110.4c-3 0-6-1.2-8.4-3.4-4.6-4.6-4.6-12 0-16.6l30.6-30.6c4.6-4.6 12-4.6 16.6 0 4.6 4.6 4.6 12 0 16.6l-30.6 30.6c-2.2 2.4-5.2 3.4-8.2 3.4zM406.6 110.4c-3 0-6-1.2-8.4-3.4l-30.6-30.6c-4.6-4.6-4.6-12 0-16.6 4.6-4.6 12-4.6 16.6 0l30.6 30.6c4.6 4.6 4.6 12 0 16.6-2.2 2.4-5.2 3.4-8.2 3.4zM362.8 216h-43.2c-6.6 0-11.8-5.2-11.8-11.8 0-6.6 5.2-11.8 11.8-11.8h43.2c6.6 0 11.8 5.2 11.8 11.8 0 6.4-5.2 11.8-11.8 11.8zM704.4 216h-43.2c-6.6 0-11.8-5.2-11.8-11.8 0-6.6 5.2-11.8 11.8-11.8h43.2c6.6 0 11.8 5.2 11.8 11.8 0 6.4-5.4 11.8-11.8 11.8z" fill="#4C4372" p-id="3716"></path><path d="M676.8 672c19.4 0 35.2-15.8 35.2-35.2V414.2c0-19.4-15.8-35.2-35.2-35.2V672z" fill="#D3E6F8" p-id="3717"></path><path d="M670 683.8c-29.8 0-54-24.2-54-54V372.4c0-6.6 5.2-11.8 11.8-11.8h33.2c34.6 0 62.8 28.2 62.8 62.8v206.4c0 29.8-24.2 54-53.8 54z m-30.4-299.6v245.6c0 16.8 13.6 30.4 30.4 30.4s30.4-13.6 30.4-30.4V423.6c0-21.6-17.6-39.2-39.2-39.2h-21.6z" fill="#4C4372" p-id="3718"></path><path d="M354 672c-23.2 0-42.2-18.8-42.2-42.2V423.6c0-28.2 22.8-51 51-51H396V630c0.2 23-18.6 42-42 42z" fill="#FFFFFF" p-id="3719"></path><path d="M362.8 672c19.4 0 35.2-15.8 35.2-35.2V379h-35.2V672z" fill="#D3E6F8" p-id="3720"></path><path d="M354 683.8c-29.8 0-54-24.2-54-54V423.6c0-34.6 28.2-62.8 62.8-62.8H396c6.6 0 11.8 5.2 11.8 11.8V630c0.2 29.6-24 53.8-53.8 53.8z m9-299.6c-21.6 0-39.2 17.6-39.2 39.2v206.4c0 16.8 13.6 30.4 30.4 30.4 16.8 0 30.4-13.6 30.4-30.4V384.2h-21.6z" fill="#4C4372" p-id="3721"></path></svg>