<?xml version="1.0" standalone="no"?><!DOCTYPE svg PUBLIC "-//W3C//DTD SVG 1.1//EN" "http://www.w3.org/Graphics/SVG/1.1/DTD/svg11.dtd"><svg t="1720921435914" class="icon" viewBox="0 0 1024 1024" version="1.1" xmlns="http://www.w3.org/2000/svg" p-id="4429" xmlns:xlink="http://www.w3.org/1999/xlink" width="128" height="128"><path d="M172 280h680a60 60 0 0 1 60 60v470H112V340a60 60 0 0 1 60-60z" fill="#495057" p-id="4430"></path><path d="M172 346.4h680v442H172z" fill="#F8F9FA" p-id="4431"></path><path d="M234 405.4m8 0l540 0q8 0 8 8l0 44q0 8-8 8l-540 0q-8 0-8-8l0-44q0-8 8-8Z" fill="#E9ECEF" p-id="4432"></path><path d="M234 525.4m8 0l140 0q8 0 8 8l0 188q0 8-8 8l-140 0q-8 0-8-8l0-188q0-8 8-8Z" fill="#E9ECEF" p-id="4433"></path><path d="M434 525.4m8 0l140 0q8 0 8 8l0 188q0 8-8 8l-140 0q-8 0-8-8l0-188q0-8 8-8Z" fill="#E9ECEF" p-id="4434"></path><path d="M634 525.4m8 0l140 0q8 0 8 8l0 188q0 8-8 8l-140 0q-8 0-8-8l0-188q0-8 8-8Z" fill="#E9ECEF" p-id="4435"></path><path d="M42 788.4h940a8 8 0 0 1 8 8v15.6a48 48 0 0 1-48 48H82a48 48 0 0 1-48-48v-15.6a8 8 0 0 1 8-8z" fill="#495057" p-id="4436"></path><path d="M435.38 788h153.24v3.46a32 32 0 0 1-32 32h-89.32a32 32 0 0 1-32-32V788h0.08z" fill="#868E96" p-id="4437"></path><path d="M694.32 225.6c-0.4 36.14 2.16 72.2 1.56 100.52 0.3 43.9 0.7 80-6.68 115.68-10.74 51.82-38.66 94.26-76.86 130.92A326.7 326.7 0 0 1 520.7 634a18.88 18.88 0 0 1-17.24 0c-65.46-30.3-116.4-75.24-149.46-138.22-14.2-26.94-20.48-55.86-23.42-85.64-4.74-48.32-1.28-96.68-1.06-145.04 0-13.4 0.9-26.86 0.84-40.32 0-4.54 1.76-6.72 6.2-8q85.82-26 171.58-52.16a16.46 16.46 0 0 1 10 0.54q84.34 25.72 168.76 51.24c5.1 1.5 7.48 3.6 7.42 9.2z" fill="#20C997" p-id="4438"></path><path d="M512.18 593.82c-55.18-27.3-95.06-65.34-121.76-116-10.16-19.3-16.24-42-19.14-71.38-3.18-32.36-2.4-64.94-1.58-99.46 0.32-13.58 0.66-27.64 0.72-41.64 0-5.64 0.2-11.34 0.4-17.38 42.58-12.9 88.24-26.8 141.36-43 50 15.22 95.8 29.2 141.24 42.92 0.16 11 0.5 21.8 0.82 32.4 0.5 16.44 0.96 32 0.68 45.06v3.88c0.28 41.3 0.5 74-5.9 104.84-8.28 40-29.72 76.16-65.54 110.54a279 279 0 0 1-71.3 49.22z" fill="#12B886" p-id="4439"></path><path d="M485.1 456.3a15.42 15.42 0 0 1-10.94-4.54l-34-34A15.48 15.48 0 0 1 462 395.8l23.12 23.14L574 330a15.48 15.48 0 0 1 21.86 21.9l-99.82 100a15.4 15.4 0 0 1-10.94 4.4z" fill="#FFFFFF" p-id="4440"></path></svg>