<?xml version="1.0" standalone="no"?><!DOCTYPE svg PUBLIC "-//W3C//DTD SVG 1.1//EN" "http://www.w3.org/Graphics/SVG/1.1/DTD/svg11.dtd"><svg t="1721130794277" class="icon" viewBox="0 0 1024 1024" version="1.1" xmlns="http://www.w3.org/2000/svg" p-id="4418" xmlns:xlink="http://www.w3.org/1999/xlink" width="128" height="128"><path d="M512.02342 512m-414 0a414 414 0 1 0 828 0 414 414 0 1 0-828 0Z" fill="#F0C48A" p-id="4419"></path><path d="M740.82342 1012.2C708.02342 870.8 558.82342 764 379.62342 764S51.22342 870.8 18.42342 1012.2h722.4z" fill="#7BABF1" p-id="4420"></path><path d="M740.82342 1024H18.42342c-3.6 0-7-1.6-9.2-4.4s-3-6.4-2.2-10c34.6-149 191.4-257.2 372.6-257.2 181.4 0 338 108.2 372.6 257.2 0.8 3.4 0 7.2-2.2 10s-5.6 4.4-9.2 4.4zM33.62342 1000.6h692c-38.6-131-181.4-224.8-346-224.8-164.4 0-307.2 93.6-346 224.8z" fill="#4C4372" p-id="4421"></path><path d="M1003.62342 1012.2C972.22342 908.6 859.82342 832 726.02342 832s-246.4 76.6-277.6 180.2h555.2z" fill="#7BABF1" p-id="4422"></path><path d="M1003.62342 1024H448.22342c-3.8 0-7.2-1.8-9.4-4.8s-2.8-6.8-1.8-10.4c33.6-111 152.4-188.4 289-188.4s255.4 77.6 289 188.4c1 3.6 0.4 7.4-1.8 10.4-2.4 3-6 4.8-9.6 4.8z m-539-23.4h522.4c-36.6-93-141.4-156.8-261.2-156.8-119.8 0-224.6 63.8-261.2 156.8z" fill="#4C4372" p-id="4423"></path><path d="M572.62342 431.8h-121.2l-78.2 580.4h277.6z" fill="#A4CFF2" p-id="4424"></path><path d="M535.42342 533.4l43 478.8h72.4l-70.2-521z" fill="#7BABF1" p-id="4425"></path><path d="M650.82342 1024H373.22342c-3.4 0-6.6-1.4-8.8-4-2.2-2.6-3.2-6-2.8-9.2l78.2-580.4c0.8-5.8 5.8-10.2 11.6-10.2h121.2c5.8 0 10.8 4.4 11.6 10.2l78.2 580.4c0.4 3.4-0.6 6.8-2.8 9.2-2.2 2.6-5.4 4-8.8 4z m-264.2-23.4h250.6l-75-557h-100.6l-75 557z" fill="#4C4372" p-id="4426"></path><path d="M512.42342 646.8c-114.6 0-208-93.2-208-208 0-6.4 5.2-11.8 11.8-11.8s11.8 5.2 11.8 11.8c0 101.8 82.8 184.4 184.4 184.4 101.8 0 184.4-82.8 184.4-184.4s-82.8-184.4-184.4-184.4c-6.4 0-11.8-5.2-11.8-11.8s5.2-11.8 11.8-11.8c114.6 0 208 93.2 208 208s-93.4 208-208 208z" fill="#4C4372" p-id="4427"></path><path d="M512.42342 741c-166.6 0-302-135.6-302-302s135.6-302 302-302c6.4 0 11.8 5.2 11.8 11.8s-5.2 11.8-11.8 11.8c-153.6 0-278.6 125-278.6 278.6 0 153.6 125 278.6 278.6 278.6s278.6-125 278.6-278.6c0-65.8-23.4-129.8-65.8-180-4.2-5-3.6-12.4 1.4-16.6 5-4.2 12.4-3.6 16.6 1.4 46 54.4 71.4 123.6 71.4 195-0.2 166.4-135.6 302-302.2 302z" fill="#4C4372" p-id="4428"></path><path d="M483.22342 459c-10-15-29.8-19.8-45.6-11.2l-128.6 70c-10.8 6-21.2 12.8-30.8 20.6l-114.4 91.4c-14 11.2-17.2 31.4-7.2 46.4s29.8 19.8 45.6 11.2l128.6-70c10.8-6 21.2-12.8 30.8-20.6l114.4-91.4c14-11.4 17.2-31.4 7.2-46.4zM541.62342 459c10-15 29.8-19.8 45.6-11.2l128.6 70c10.8 6 21.2 12.8 30.8 20.6l114.4 91.4c14 11.2 17.2 31.4 7.2 46.4s-29.8 19.8-45.6 11.2l-128.6-70c-10.8-6-21.2-12.8-30.8-20.6l-114.4-91.4c-14-11.4-17.2-31.4-7.2-46.4z" fill="#D3E6F8" p-id="4429"></path><path d="M152.42342 676.2l336.2-217-12.6 46.2-114.4 90.6-160.4 95.8zM537.42342 459.2l334.2 217-48.8 15.6-160.4-95.8-113.2-84z" fill="#A4CFF2" p-id="4430"></path><path d="M512.42342 17.6c-18 0-33 13.8-34.6 31.6l-12.8 145.8c-1 12.4-1 24.8 0 37l12.8 145.8c1.6 18 16.6 31.6 34.6 31.6s33-13.8 34.6-31.6l12.8-145.8c1-12.4 1-24.8 0-37l-12.8-145.8c-1.6-17.8-16.6-31.6-34.6-31.6z" fill="#D3E6F8" p-id="4431"></path><path d="M512.02342 17.6v392.8l35.2-33.2 13.6-146.6-13.6-181.8S531.62342 11.8 512.02342 17.6z" fill="#A4CFF2" p-id="4432"></path><path d="M173.82342 11.8l-162 162h81l-62 173.8 189.8-168H133.02342z" fill="#FD919E" p-id="4433"></path><path d="M30.82342 359.2c-2.2 0-4.6-0.6-6.6-2-4.4-3-6.2-8.6-4.4-13.6l56.4-158H11.82342c-4.8 0-9-2.8-10.8-7.2-2-4.4-1-9.6 2.4-12.8l162-162c3.8-3.8 9.4-4.6 14-2 4.6 2.6 6.8 7.8 5.6 13L148.02342 168h72.6c4.8 0 9.2 3 11 7.6 1.8 4.6 0.4 9.8-3.2 13l-189.8 168c-2.4 1.6-5.2 2.6-7.8 2.6zM40.02342 162h52.8c3.8 0 7.4 1.8 9.6 5 2.2 3.2 2.8 7.2 1.4 10.6l-46.8 130.8 132.4-117.2H133.02342c-3.6 0-7-1.6-9.2-4.4-2.2-2.8-3-6.6-2.2-10l30.8-127.4L40.02342 162z" fill="#4C4372" p-id="4434"></path><path d="M512.42342 421.4c-24.2 0-44.2-18.2-46.2-42.4l-12.8-145.8c-1.2-13-1.2-26.2 0-39l12.8-145.8c2.2-24.2 22-42.4 46.2-42.4 24.2 0 44.2 18.2 46.2 42.4l12.8 145.8c1.2 13 1.2 26.2 0 39l-12.8 145.8c-2 24.2-22 42.4-46.2 42.4z m0-392c-12 0-21.8 9-23 21l-12.8 145.8c-1 11.6-1 23.4 0 35l12.8 145.8c1 12 10.8 21 23 21 12 0 21.8-9 23-21l12.8-145.8c1-11.6 1-23.4 0-35l-12.8-145.8c-1.2-12-11-21-23-21z" fill="#4C4372" p-id="4435"></path><path d="M185.42342 703.2c-15 0-29.6-7.4-38.6-20.8-13.4-20.2-9.2-46.8 9.6-62l114.4-91.4c10.2-8.2 21.2-15.4 32.6-21.6l128.6-70c21.4-11.6 47.4-5.2 61 15 13.4 20.2 9.2 46.8-9.6 62l-114.4 91.4c-10.2 8.2-21.2 15.4-32.6 21.6l-128.6 70c-7.2 4-14.8 5.8-22.4 5.8z m269-248c-3.8 0-7.6 1-11 2.8l-128.6 70c-10.2 5.6-20 12-29.2 19.4l-114.4 91.4c-9.4 7.4-11.4 20.6-4.8 30.8 6.6 10 19.6 13.2 30.2 7.4l128.6-70c10.2-5.6 20-12 29.2-19.4l114.4-91.4c9.4-7.4 11.4-20.6 4.8-30.8-4.6-6.6-11.8-10.2-19.2-10.2zM839.42342 703.2c-7.6 0-15.2-1.8-22.4-5.8l-128.6-70c-11.4-6.2-22.4-13.6-32.6-21.6l-114.4-91.4c-19-15.2-23.2-41.8-9.6-62 13.4-20.2 39.6-26.6 61-15l128.6 70c11.4 6.2 22.4 13.6 32.6 21.6l114.4 91.4c19 15.2 23.2 41.8 9.6 62-9 13.6-23.6 20.8-38.6 20.8z m-269-248c-7.4 0-14.6 3.6-19 10.4-6.6 10-4.6 23.2 4.8 30.8l114.4 91.4c9.2 7.2 19 13.8 29.2 19.4l128.6 70c10.6 5.8 23.6 2.6 30.2-7.4 6.6-10 4.6-23.2-4.8-30.8l-114.4-91.4c-9.2-7.2-19-13.8-29.2-19.4l-128.6-70c-3.6-2.2-7.4-3-11.2-3z" fill="#4C4372" p-id="4436"></path><path d="M959.62342 242.4h-175.8c-6.4 0-11.8-5.2-11.8-11.8s5.2-11.8 11.8-11.8h175.8c6.4 0 11.8 5.2 11.8 11.8s-5.4 11.8-11.8 11.8zM1012.22342 242.4h-19.6c-6.4 0-11.8-5.2-11.8-11.8s5.2-11.8 11.8-11.8h19.6c6.4 0 11.8 5.2 11.8 11.8s-5.2 11.8-11.8 11.8zM1012.22342 191.6h-175.8c-6.4 0-11.8-5.2-11.8-11.8 0-6.4 5.2-11.8 11.8-11.8h175.8c6.4 0 11.8 5.2 11.8 11.8 0 6.4-5.2 11.8-11.8 11.8zM803.22342 191.6h-19.6c-6.4 0-11.8-5.2-11.8-11.8 0-6.4 5.2-11.8 11.8-11.8h19.6c6.4 0 11.8 5.2 11.8 11.8 0 6.4-5.4 11.8-11.8 11.8z" fill="#4C4372" p-id="4437"></path><path d="M512.42342 438.8m-86 0a86 86 0 1 0 172 0 86 86 0 1 0-172 0Z" fill="#FFFFFF" p-id="4438"></path><path d="M512.42342 536.6c-53.8 0-97.8-43.8-97.8-97.8 0-53.8 43.8-97.8 97.8-97.8s97.8 43.8 97.8 97.8c-0.2 54-44 97.8-97.8 97.8z m0-172c-41 0-74.2 33.4-74.2 74.2s33.4 74.2 74.2 74.2 74.2-33.4 74.2-74.2-33.2-74.2-74.2-74.2z" fill="#4C4372" p-id="4439"></path></svg>