<?xml version="1.0" standalone="no"?><!DOCTYPE svg PUBLIC "-//W3C//DTD SVG 1.1//EN" "http://www.w3.org/Graphics/SVG/1.1/DTD/svg11.dtd"><svg t="1720950123659" class="icon" viewBox="0 0 1024 1024" version="1.1" xmlns="http://www.w3.org/2000/svg" p-id="1072" xmlns:xlink="http://www.w3.org/1999/xlink" width="128" height="128"><path d="M884.89 959.35H138.65c-41.04 0-74.44-33.39-74.44-74.42V138.64c0-41.04 33.4-74.45 74.44-74.45h746.24c41.04 0 74.44 33.4 74.44 74.45v746.28c0.01 41.05-33.38 74.43-74.44 74.43z" fill="#0077F1" p-id="1073"></path><path d="M138.65 131.82c-3.76 0-6.82 3.05-6.82 6.82v746.28c0.01 3.76 3.05 6.8 6.82 6.81h746.24c3.77-0.01 6.82-3.05 6.82-6.81V138.64c0-3.77-3.05-6.82-6.82-6.82H138.65z" fill="#ACD8FF" p-id="1074"></path><path d="M106.1 307.81h819.43v67.62H106.1z" fill="#0077F1" p-id="1075"></path><path d="M354.83 317.19h67.62v585.22h-67.62z" fill="#0077F1" p-id="1076"></path></svg>