<?xml version="1.0" standalone="no"?><!DOCTYPE svg PUBLIC "-//W3C//DTD SVG 1.1//EN" "http://www.w3.org/Graphics/SVG/1.1/DTD/svg11.dtd"><svg t="1720949829491" class="icon" viewBox="0 0 1024 1024" version="1.1" xmlns="http://www.w3.org/2000/svg" p-id="3945" xmlns:xlink="http://www.w3.org/1999/xlink" width="128" height="128"><path d="M161.26 223.7h116.08v639.84H161.26z" fill="#279ACC" p-id="3946"></path><path d="M414.62 863.59H220.19v-695.4h569.23V493.3a28.56 28.56 0 1 1-57.12 0v-268h-455v581.17h137.32a28.56 28.56 0 0 1 0 57.12z" fill="#303030" p-id="3947"></path><path d="M509.37 292.63a28.56 28.56 0 0 1-28.56-28.56V129.42a28.56 28.56 0 1 1 57.12 0v134.65a28.55 28.55 0 0 1-28.56 28.56zM655.85 292.63a28.56 28.56 0 0 1-28.56-28.56V129.42a28.56 28.56 0 1 1 57.12 0v134.65a28.55 28.55 0 0 1-28.56 28.56zM362.05 292.63a28.56 28.56 0 0 1-28.56-28.56V129.42a28.56 28.56 0 0 1 57.12 0v134.65a28.55 28.55 0 0 1-28.56 28.56z" fill="#303030" p-id="3948"></path><path d="M362.05 358.03m-28.41 0a28.41 28.41 0 1 0 56.82 0 28.41 28.41 0 1 0-56.82 0Z" fill="#303030" p-id="3949"></path><path d="M661.72 386.59H458.6a28.56 28.56 0 0 1 0-57.12h203.12a28.56 28.56 0 0 1 0 57.12z" fill="#303030" p-id="3950"></path><path d="M362.05 455.23m-28.41 0a28.41 28.41 0 1 0 56.82 0 28.41 28.41 0 1 0-56.82 0Z" fill="#303030" p-id="3951"></path><path d="M661.72 483.78H458.6a28.56 28.56 0 0 1 0-57.12h203.12a28.56 28.56 0 0 1 0 57.12z" fill="#303030" p-id="3952"></path><path d="M612.02 689.26m-136.84 0a136.84 136.84 0 1 0 273.68 0 136.84 136.84 0 1 0-273.68 0Z" fill="#279ACC" p-id="3953"></path><path d="M612 854.66c-91.2 0-165.39-74.2-165.39-165.4s74.21-165.4 165.39-165.4 165.4 74.2 165.4 165.4-74.18 165.4-165.4 165.4zM612 581a108.28 108.28 0 1 0 108.3 108.26A108.4 108.4 0 0 0 612 581z" fill="#303030" p-id="3954"></path><path d="M836.51 950.54a28.47 28.47 0 0 1-20.19-8.37l-132-132a28.56 28.56 0 1 1 40.39-40.39l132 132a28.57 28.57 0 0 1-20.2 48.76z" fill="#303030" p-id="3955"></path></svg>