<?xml version="1.0" standalone="no"?><!DOCTYPE svg PUBLIC "-//W3C//DTD SVG 1.1//EN" "http://www.w3.org/Graphics/SVG/1.1/DTD/svg11.dtd"><svg t="1720949876046" class="icon" viewBox="0 0 1024 1024" version="1.1" xmlns="http://www.w3.org/2000/svg" p-id="7218" xmlns:xlink="http://www.w3.org/1999/xlink" width="128" height="128"><path d="M695.25 697.23m-166.56 0a166.56 166.56 0 1 0 333.12 0 166.56 166.56 0 1 0-333.12 0Z" fill="#279ACC" p-id="7219"></path><path d="M115.18 219.17m5.67 0l259.6 0q5.67 0 5.67 5.67l0 258.64q0 5.67-5.67 5.67l-259.6 0q-5.67 0-5.67-5.67l0-258.64q0-5.67 5.67-5.67Z" fill="#279ACC" p-id="7220"></path><path d="M401 489.15H252.9a85.69 85.69 0 0 1-85.6-85.59V255.49a85.7 85.7 0 0 1 85.6-85.6H401a85.7 85.7 0 0 1 85.6 85.6v148.07a85.69 85.69 0 0 1-85.6 85.59zM252.9 222.28a33.25 33.25 0 0 0-33.21 33.21v148.07a33.24 33.24 0 0 0 33.21 33.2H401a33.24 33.24 0 0 0 33.21-33.2V255.49A33.25 33.25 0 0 0 401 222.28zM401 856.86H252.9a85.69 85.69 0 0 1-85.6-85.59V623.19a85.69 85.69 0 0 1 85.6-85.59H401a85.69 85.69 0 0 1 85.6 85.59v148.08a85.69 85.69 0 0 1-85.6 85.59zM252.9 590a33.24 33.24 0 0 0-33.21 33.2v148.07a33.24 33.24 0 0 0 33.21 33.2H401a33.24 33.24 0 0 0 33.21-33.2V623.19A33.24 33.24 0 0 0 401 590zM774.48 489.15H626.41a85.69 85.69 0 0 1-85.6-85.59V255.49a85.7 85.7 0 0 1 85.6-85.6h148.07a85.7 85.7 0 0 1 85.6 85.6v148.07a85.69 85.69 0 0 1-85.6 85.59zM626.41 222.28a33.25 33.25 0 0 0-33.21 33.21v148.07a33.24 33.24 0 0 0 33.21 33.2h148.07a33.24 33.24 0 0 0 33.21-33.2V255.49a33.25 33.25 0 0 0-33.21-33.21zM695.26 671.18a26.11 26.11 0 0 1-18.53-7.68L622 608.78a26.19 26.19 0 0 1 37-37l54.73 54.72a26.2 26.2 0 0 1-18.52 44.72z" fill="#303030" p-id="7221"></path><path d="M695.26 671.18a26.2 26.2 0 0 1-18.53-44.72l54.73-54.72a26.19 26.19 0 0 1 37 37l-54.68 54.76a26.11 26.11 0 0 1-18.52 7.68z" fill="#303030" p-id="7222"></path><path d="M764.52 708.75H626a26.2 26.2 0 0 1 0-52.39h138.52a26.2 26.2 0 1 1 0 52.39zM764.52 791.56H626a26.2 26.2 0 0 1 0-52.39h138.52a26.2 26.2 0 1 1 0 52.39z" fill="#303030" p-id="7223"></path><path d="M695.26 846.3a26.19 26.19 0 0 1-26.2-26.19V649.83a26.2 26.2 0 0 1 52.39 0v170.28a26.19 26.19 0 0 1-26.19 26.19z" fill="#303030" p-id="7224"></path></svg>